<?xml version="1.0" encoding="utf-8"?>
<!-- Generator: Adobe Illustrator 18.1.1, SVG Export Plug-In . SVG Version: 6.00 Build 0)  -->
<svg version="1.1" id="Layer_1" xmlns="http://www.w3.org/2000/svg" xmlns:xlink="http://www.w3.org/1999/xlink" x="0px" y="0px"
	 viewBox="0 0 200 150" enable-background="new 0 0 200 150" xml:space="preserve">
<path fill="#FFFFFF" d="M10,9.4h106.8l66,67.6L118,141H10V9.4z"/>
<linearGradient id="SVGID_1_" gradientUnits="userSpaceOnUse" x1="984.6541" y1="872.1735" x2="1068.395" y2="788.4326" gradientTransform="matrix(0.7071 0.7071 0.7071 -0.7071 -1210.8651 -63.587)">
	<stop  offset="0" style="stop-color:#66B9E2"/>
	<stop  offset="0.134" style="stop-color:#60B7E1"/>
	<stop  offset="0.31" style="stop-color:#50B0DE"/>
	<stop  offset="0.509" style="stop-color:#35A4D9"/>
	<stop  offset="0.723" style="stop-color:#0F95D2"/>
	<stop  offset="0.8" style="stop-color:#008ECF"/>
</linearGradient>
<path fill="url(#SVGID_1_)" d="M102.1,134.4L42.9,75.2l59.2-59.2l59.2,59.2L102.1,134.4z"/>
<circle fill="#FFFFFE" cx="102.1" cy="75.2" r="36.3"/>
<linearGradient id="SVGID_2_" gradientUnits="userSpaceOnUse" x1="694.1103" y1="-486.837" x2="694.1103" y2="-419.2626" gradientTransform="matrix(1 0 0 -1 -592 -379)">
	<stop  offset="0" style="stop-color:#76BFE4"/>
	<stop  offset="0.123" style="stop-color:#70BDE3"/>
	<stop  offset="0.283" style="stop-color:#60B6E0"/>
	<stop  offset="0.464" style="stop-color:#45ABDB"/>
	<stop  offset="0.66" style="stop-color:#1F9BD5"/>
	<stop  offset="0.8" style="stop-color:#008ECF"/>
</linearGradient>
<circle fill="url(#SVGID_2_)" cx="102.1" cy="75.2" r="32.7"/>
<g>
	<path fill="#FFFFFE" d="M83.1,81.5c-0.3,0.3-0.6,0.5-0.9,0.8c-0.3,0.2-0.6,0.5-1.1,0.7c-0.4,0.2-0.9,0.4-1.3,0.5
		c-0.4,0.1-1,0.2-1.7,0.2c-1.4,0-2.5-0.5-3.5-1.4c-0.9-0.9-1.4-2.1-1.4-3.5c0-1.2,0.2-2.1,0.7-2.8c0.5-0.7,1.1-1.3,2-1.7
		c0.9-0.4,1.9-0.7,3.2-0.9c1.2-0.2,2.6-0.3,4-0.4v-0.1c0-0.9-0.3-1.5-1-1.8c-0.6-0.3-1.6-0.5-2.9-0.5c-0.6,0-1.3,0.1-2,0.3
		c-0.8,0.2-1.5,0.5-2.3,0.8h-0.4v-3.8c0.5-0.1,1.3-0.3,2.4-0.5c1.1-0.2,2.2-0.3,3.3-0.3c2.7,0,4.7,0.5,5.9,1.4
		c1.2,0.9,1.9,2.3,1.9,4.1v10.7h-4.9L83.1,81.5L83.1,81.5L83.1,81.5z M83.1,79.1v-3.3c-0.8,0.1-1.5,0.2-2,0.2
		c-0.5,0.1-1,0.2-1.5,0.4c-0.4,0.1-0.8,0.4-1,0.7c-0.2,0.3-0.4,0.7-0.4,1.2c0,0.7,0.2,1.2,0.6,1.5c0.4,0.3,1,0.4,1.7,0.4
		c0.4,0,0.9-0.1,1.3-0.3C82.3,79.7,82.7,79.4,83.1,79.1L83.1,79.1z M98.8,83.6c-1.3,0-2.5-0.2-3.6-0.5c-1-0.3-2-0.8-2.8-1.5
		c-0.8-0.7-1.4-1.6-1.8-2.6c-0.4-1-0.7-2.2-0.7-3.7c0-1.5,0.2-2.8,0.7-3.8c0.4-1,1.1-1.9,1.9-2.6c0.8-0.7,1.8-1.2,2.8-1.4
		c1.1-0.3,2.2-0.5,3.3-0.5c1.8,0,3.6,0.4,5.2,1.3v4.2h-0.6c-0.2-0.2-0.5-0.4-0.7-0.6c-0.3-0.2-0.6-0.4-0.9-0.6
		c-0.4-0.2-0.8-0.4-1.2-0.5c-0.5-0.1-1-0.2-1.5-0.2c-1.3,0-2.2,0.4-2.9,1.3c-0.7,0.9-1,2-1,3.5c0,1.6,0.4,2.8,1.1,3.5
		c0.7,0.8,1.7,1.2,2.9,1.2c0.6,0,1.2-0.1,1.6-0.2c0.5-0.1,0.9-0.3,1.2-0.5c0.3-0.2,0.6-0.4,0.8-0.6c0.2-0.2,0.4-0.4,0.6-0.6h0.6v4.2
		c-0.3,0.1-0.6,0.3-1,0.4c-0.4,0.2-0.7,0.3-1.1,0.4c-0.5,0.1-0.9,0.2-1.3,0.3C100,83.6,99.4,83.6,98.8,83.6L98.8,83.6z M125.3,83.2
		v-7.9c0-0.8,0-1.4,0-2c0-0.5-0.1-1-0.3-1.3c-0.1-0.3-0.4-0.6-0.7-0.7c-0.3-0.2-0.7-0.2-1.2-0.2c-0.4,0-0.7,0.1-1.1,0.2
		c-0.4,0.2-0.8,0.4-1.2,0.7v11.2h-4.9v-7.9c0-0.8,0-1.4,0-2c0-0.5-0.1-1-0.3-1.3c-0.1-0.3-0.4-0.6-0.7-0.7c-0.3-0.2-0.7-0.2-1.2-0.2
		c-0.4,0-0.8,0.1-1.2,0.3c-0.4,0.2-0.8,0.4-1.1,0.7v11.2h-4.9V67.5h4.9v1.7c0.7-0.6,1.5-1.1,2.3-1.6c0.7-0.4,1.6-0.6,2.4-0.6
		c1,0,1.8,0.2,2.5,0.7c0.7,0.5,1.3,1.1,1.7,2c0.9-0.9,1.8-1.6,2.7-2c0.8-0.5,1.7-0.7,2.5-0.7c0.7,0,1.4,0.1,2,0.4
		c0.6,0.2,1.1,0.6,1.5,1.1c0.4,0.5,0.8,1.1,1,1.8c0.2,0.7,0.3,1.6,0.3,2.7v10.2L125.3,83.2L125.3,83.2z"/>
</g>
</svg>
