<?xml version="1.0" encoding="utf-8"?>
<!-- Generator: Adobe Illustrator 18.1.1, SVG Export Plug-In . SVG Version: 6.00 Build 0)  -->
<svg version="1.1" id="Layer_1" xmlns="http://www.w3.org/2000/svg" xmlns:xlink="http://www.w3.org/1999/xlink" x="0px" y="0px"
	 viewBox="0 0 283 245" enable-background="new 0 0 283 245" xml:space="preserve">
<polyline fill="#898989" points="157.1,134 137.1,144.8 134.8,142 152.7,121.3 158.7,109.3 162.6,123.6 157.1,134 "/>
<polygon fill="#A0A0A0" points="126.2,151.4 148.7,102 116.9,132.6 "/>
<polyline fill="#DDDDDD" points="103.1,104.3 81.2,35 103.1,19.3 "/>
<polyline fill="#A0A0A0" points="118.2,125.5 129.4,83 134.1,90.8 125.7,122.5 "/>
<polyline fill="#A0A0A0" points="133.7,137.6 152.7,94.9 156.4,90.1 163.9,88 149.2,124.1 138.3,137.6 "/>
<polygon fill="#A0A0A0" points="70.1,79.6 62.7,108.4 50.2,84.9 44.2,49.1 72.6,27.9 96.6,20.4 90.1,25.9 79.1,37.3 66.2,58.6 "/>
<polyline fill="#A0A0A0" points="105,106.5 124.1,153.8 115.4,162.8 75.2,124.6 84.9,96.6 98.1,127.9 "/>
<polyline fill="#A0A0A0" points="159.7,132.6 183.7,165.1 186.2,145.5 177.7,135.4 168.8,118.4 "/>
<polygon fill="#A0A0A0" points="206,131.1 191.4,130.3 184.1,125 187.1,120.5 210.3,128.8 "/>
<polygon fill="#A0A0A0" points="149.6,48.1 163.6,34.6 163.6,28.4 153.6,16 110.7,5.3 104.3,14.6 111.4,27.8 112.9,14.6 118.2,11.4 
	139.2,19.6 148.7,33.6 "/>
<polyline fill="#DDDDDD" points="124.6,123.6 123.5,116.7 136.3,94.6 156.1,89.4 "/>
<polyline fill="#DDDDDD" points="122,61.3 111.4,27.8 116,12.7 118.2,20.4 124.1,48.1 124.1,58.6 "/>
<polyline fill="#DDDDDD" points="72.9,126.2 63.4,109.8 72.9,78.3 72.9,69.7 82.4,89.5 83.1,102 "/>
<polyline fill="none" stroke="#898989" stroke-width="4" stroke-miterlimit="10" points="250.2,78.6 214.7,81.8 201.7,78.6 
	181.8,90.8 162.6,123.6 181.8,90.8 "/>
<polyline fill="none" stroke="#898989" stroke-width="4" stroke-miterlimit="10" points="116.9,131.1 128.7,81.8 135.2,92.6 
	165.9,86.5 154.9,113.4 "/>
<path fill="none" stroke="#898989" stroke-width="4" stroke-miterlimit="10" d="M68.3,92.4"/>
<polyline fill="none" stroke="#898989" stroke-width="4" stroke-miterlimit="10" points="81.5,84 67.6,58.6 84.9,94.9 74.7,126.2 
	"/>
<polyline fill="none" stroke="#898989" stroke-width="4" stroke-miterlimit="10" points="103.4,17 112.9,33.4 112.9,16 118.6,12.8 
	142.1,22 148.7,35.1 147.2,48.1 162.6,34.8 162.6,29.1 150.6,17 "/>
<polyline fill="none" stroke="#898989" stroke-width="4" stroke-miterlimit="10" points="112.9,33.4 128.7,81.8 118.6,12.8 
	142.1,22 147.2,48.1 135.2,92.6 121.4,126.9 152.7,94.9 126.5,153.8 "/>
<path fill="none" stroke="#898989" stroke-width="4" stroke-miterlimit="10" d="M203.9,45.3"/>
<polyline fill="none" stroke="#898989" stroke-width="4" stroke-miterlimit="10" points="250.3,76.6 244.2,90.1 233.2,106.1 
	202.4,97.8 190.7,105.1 186.2,120.5 217.7,129.6 205.7,150.6 183.7,165.1 159.7,132.6 133.7,146.6 115.2,165.1 66.7,118.6 
	49.2,85.1 44.2,49.1 70.7,27.1 106.2,16.1 110.7,6.6 132.2,10.6 172.2,23.1 214.2,39.1 214.2,55.6 250.2,78.6 "/>
<polyline fill="none" stroke="#898989" stroke-width="4" stroke-miterlimit="10" points="195.5,102.6 203.2,112.1 207.7,126.2 
	201.6,124.2 199.7,119.1 191.2,114.4 189.1,120 "/>
<polyline fill="none" stroke="#898989" stroke-width="4" stroke-miterlimit="10" points="81.2,83.3 98.9,126.2 103.4,102.6 
	125.1,153.8 150.9,122.1 159.9,102.6 168.8,78.6 192,69.3 170,58.6 192.6,58.6 214.2,55.6 214.2,39.1 148.7,16 "/>
<polyline fill="none" stroke="#898989" stroke-width="4" stroke-miterlimit="10" points="82.7,33.7 104.3,102 103.4,57.6 103.4,17 
	83.7,32.1 67.6,58.6 71.7,78.6 63.4,112.2 "/>
<polygon fill="none" stroke="#898989" stroke-width="4" stroke-miterlimit="10" points="168.8,22 156.7,10.6 143.2,3.6 131,3.6 
	128.7,9.9 "/>
<polyline fill="#898989" points="232.7,78.6 238.2,85.1 250.2,78.6 "/>
<polyline fill="none" stroke="#898989" stroke-width="4" stroke-miterlimit="10" points="187.3,116.9 184.8,124.2 190.2,129.4 
	202.2,129.8 213.4,129.8 186.3,144.3 183.7,165.1 186.3,144.3 175.8,135.3 168.8,116.9 157.9,133.6 "/>
<polyline fill="none" stroke="#898989" stroke-width="4" stroke-miterlimit="10" points="162.6,30.4 162.6,55.1 137.7,90.8 "/>
<polyline fill="none" stroke="#898989" stroke-width="4" stroke-miterlimit="10" points="232.1,105.7 227.1,114.4 224.4,104.1 "/>
<polyline fill="none" stroke="#898989" stroke-width="4" stroke-miterlimit="10" points="210.9,127.2 215.9,118.4 218.6,128.8 "/>
<line fill="none" stroke="#898989" stroke-width="4" stroke-miterlimit="10" x1="157.9" y1="104.3" x2="162.6" y2="123.6"/>
<path fill="none" stroke="#898989" stroke-width="4" stroke-miterlimit="10" d="M177.9,136.1"/>
<path fill="none" stroke="#898989" stroke-width="4" stroke-miterlimit="10" d="M201.7,78.6"/>
<path fill="none" stroke="#898989" stroke-width="4" stroke-miterlimit="10" d="M196.7,102"/>
<polyline fill="none" stroke="#898989" stroke-width="4" stroke-miterlimit="10" points="201.7,78.6 195,68.8 198.4,60.3 
	177.7,60.3 "/>
<path fill="none" stroke="#898989" stroke-width="4" stroke-miterlimit="10" d="M177.7,99.1"/>
<path fill="none" stroke="#898989" stroke-width="4" stroke-miterlimit="10" d="M168.8,78.6"/>
<g>
	<path fill="#A0A0A0" d="M29.1,223.3c-1.3-1.5-3.7-2.9-5.6-2.9c-5.2,0-5.9,5-5.9,6.7s0.7,6.6,6,6.6c2,0,4.3-1.2,5.9-2.7l2.9,3.5
		c-2.4,2.4-5.2,4-8.8,4c-8.5,0-11.1-6.7-11.1-11.5c0-4.7,2.6-11.5,11.1-11.5c3.8,0,6.6,1.8,9,4.5L29.1,223.3z"/>
	<path fill="#A0A0A0" d="M66.7,238.2H61l-2-4.7h-6.3l-2,4.7H45l10.6-22.6h0.4L66.7,238.2z M54.4,229.5h3l-1.5-3.6L54.4,229.5z"/>
	<path fill="#A0A0A0" d="M84.6,220.6h-5.9v-4.8h16.9v4.8h-5.9v17.6h-5.2V220.6z"/>
	<path fill="#A0A0A0" d="M124.6,238.2h-5.2v-22.4h5.2v9h8.3v-9h5.1v22.4h-5.1v-8.7h-8.3V238.2z"/>
	<path fill="#A0A0A0" d="M173.5,238.2h-5.7l-2-4.7h-6.3l-2,4.7h-5.7l10.6-22.6h0.4L173.5,238.2z M161.1,229.5h3l-1.5-3.6
		L161.1,229.5z"/>
	<path fill="#A0A0A0" d="M202.7,223.3c-1.3-1.5-3.7-2.9-5.6-2.9c-5.2,0-5.9,5-5.9,6.7s0.7,6.6,6,6.6c2,0,4.3-1.2,5.9-2.7l2.9,3.5
		c-2.4,2.4-5.2,4-8.8,4c-8.5,0-11.1-6.7-11.1-11.5c0-4.7,2.6-11.5,11.1-11.5c3.8,0,6.6,1.8,9,4.5L202.7,223.3z"/>
	<path fill="#A0A0A0" d="M220.8,238.2v-22.4h5.2v8.5l7.4-8.5h6l0.1,0.3l-9.5,10.5l10.2,11.2l-0.1,0.3h-6l-8.1-9.2v9.2H220.8z"/>
	<path fill="#A0A0A0" d="M263.6,224.8c3.1,1.1,6.5,2.6,6.5,6.7c0,3.9-3.4,6.9-8.3,6.9c-3.3,0-6-0.9-8.9-2.4l2.3-4.3
		c2.2,1.1,4.4,1.9,6.4,1.9c1.7,0,3.1-0.8,3.1-1.9c0-1.4-1.7-2-3.8-2.7c-3.2-1.1-7.3-2.3-7.3-6.9c0-4.2,3.1-6.7,7.4-6.7
		c1.5,0,4.6,0.2,8.6,2.2l-1.9,4.4c-1.1-0.4-4.4-1.7-6.4-1.7c-1.3,0-2.6,0.4-2.6,1.6C258.8,223.3,261.1,223.9,263.6,224.8z"/>
</g>
</svg>
