<?xml version="1.0" encoding="utf-8"?>
<!-- Generator: Adobe Illustrator 18.1.1, SVG Export Plug-In . SVG Version: 6.00 Build 0)  -->
<svg version="1.1" id="Layer_1" xmlns="http://www.w3.org/2000/svg" xmlns:xlink="http://www.w3.org/1999/xlink" x="0px" y="0px"
	 viewBox="0 0 200 150" enable-background="new 0 0 200 150" xml:space="preserve">
<g id="Layer_1_1_">
	<g>
		<path fill="none" d="M193.5,110.5H8.4V44.3h185.1V110.5z"/>
		<path fill="#0C1C8C" d="M70.3,97.1V59.5h10.3v37.6H70.3z"/>
		<path fill="#0C1C8C" d="M86.1,97.1V59.5h29.1v7.3H97v7.9h16.4v7.3H97v7.9h18.2v7.3H86.1z"/>
		<path fill="#0C1C8C" d="M120.6,97.1V59.5h29.1v7.3h-18.2v7.9h17v7.3h-17v7.9h18.2v7.3H120.6z"/>
		<path fill="#0C1C8C" d="M155.8,97.1V59.5h28.5v7.3h-18.2v7.9h17v7.3h-17v7.9h18.2v7.3H155.8z"/>
		<path fill="#0C1C8C" d="M41.2,55.9c1.8,1.8,3.6,4.2,4.9,6.1l4.2,4.2c4.2,3.6,7.9,6.7,12.1,9.7l0,0c0.6,0.6,1.2,1.2,1.2,1.8
			c0,1.2-1.8,1.8-2.4,2.4c-8.5,6.1-15.8,13.3-21.8,21.8l-0.6,0.6c0,0-0.6,0-1.2,0c-0.6-0.6-0.6-1.2-1.2-1.2c-1.2-2.4-3-4.2-4.2-6.1
			c-1.2-0.6-1.8-1.8-2.4-2.4c-4.9-5.5-10.3-10.3-15.8-14c-0.6-0.6-1.2-1.2-0.6-1.8c0-0.6,0.6-1.2,1.2-1.2c7.3-4.9,14-11.5,19.4-18.2
			l3-4.9c0.6,0,1.2-0.6,1.8,0c0,0,0.6,0,0.6,0.6L41.2,55.9z M36.3,59.5c-1.2,1.2-3,2.4-4.2,3.6c-0.6,0-0.6,0.6-0.6,0.6
			c-3.6,3-7.3,6.7-9.7,10.3c-1.2,1.2-1.8,1.8-2.4,3c0,1.2,0,1.8,0.6,1.8c2.4,3.6,5.5,7.3,9.1,10.3c2.4,2.4,5.5,5.5,8.5,6.7
			c1.2,0.6,2.4,0,3-0.6c4.2-3,8.5-6.7,12.1-10.9c1.2-1.8,3-3.6,4.2-6.1c0-1.2,0-1.8-0.6-2.4c-3-4.2-6.1-7.9-10.3-11.5l0,0
			c-1.2-1.2-3-2.4-4.2-3.6C40.5,59.5,38.1,58.3,36.3,59.5z"/>
		<path fill="#0C1C8C" d="M41.8,61.9c4.9,4.2,9.7,9.1,13.3,14.6c0.6,0.6,1.2,1.8,0.6,2.4c-1.2,1.2-2.4,3-3.6,4.2l0,0
			c-3,3.6-6.1,6.7-9.7,9.7c-1.8,0.6-3,3-5.5,1.8c-4.9-3.6-9.7-8.5-14-13.3c-0.6-0.6-1.8-1.8-1.8-3c-0.6-1.2,0.6-2.4,1.2-3.6
			c4.2-5.5,9.7-10.3,14.6-14C38.7,59.5,40.5,61.3,41.8,61.9z M38.1,63.7l-0.6,1.8l-1.8,6.7c0,0,1.2,0,1.8,0l0,0l-0.6,7.9l0,0
			c0.6,0,1.8,0,2.4,0v-0.6v-7.3l0,0h1.8C39.9,69.2,39.3,66.8,38.1,63.7L38.1,63.7z M30.2,74.7c-1.2,0.6-3,1.2-3,3
			c0.6,1.2,1.2,1.8,2.4,2.4c4.2,1.8,10.3,1.8,15.8,0.6c0.6-0.6,2.4-1.2,3-3c0-1.2-1.8-1.8-2.4-2.4l0,0c0,0,0.6,0,1.2,0l0,0
			c-1.8-0.6-3.6-1.2-4.9-1.2c0,0.6,0.6,1.2,0.6,1.8c0.6,0,1.2,0,1.2,0c1.2,0,2.4,0.6,2.4,1.8c0,0.6-1.2,1.2-1.8,1.8
			c-3.6,1.2-7.3,1.2-11.5,0.6c-0.6-0.6-2.4-1.2-2.4-2.4c0.6-1.8,2.4-1.8,4.2-2.4c-0.6-0.6-1.8-1.2-2.4-1.8
			C32.1,74.1,30.8,74.1,30.2,74.7z M36.9,81.9c0,2.4,0,5.5-0.6,7.9c1.2,0,2.4,0,3.6,0l-0.6-7.3v-0.6C38.7,81.9,38.1,81.9,36.9,81.9z
			"/>
		<path fill="#0C1C8C" d="M48.4,98.3v-0.6H49h0.6c0,0.6,0,0.6-0.6,0.6H48.4z M48.4,98.9H49l0.6,1.2h0.6l-0.6-1.2
			c0,0,0.6-0.6,0.6-1.2c0-0.6-0.6-0.6-1.2-0.6h-1.2v3h0.6V98.9z M51.5,98.3c0-1.2-1.2-2.4-2.4-2.4c-1.2,0-2.4,1.2-2.4,2.4
			c0,1.8,1.2,3,2.4,3C50.3,101.4,51.5,100.1,51.5,98.3z M50.9,98.3c0,1.2-0.6,2.4-1.8,2.4l0,0c-1.2,0-1.8-1.2-1.8-2.4
			s0.6-1.8,1.8-1.8C50.3,96.5,50.9,97.1,50.9,98.3z"/>
	</g>
</g>
</svg>
