<?xml version="1.0" encoding="utf-8"?>
<!-- Generator: Adobe Illustrator 18.1.1, SVG Export Plug-In . SVG Version: 6.00 Build 0)  -->
<svg version="1.1" id="Layer_1" xmlns="http://www.w3.org/2000/svg" xmlns:xlink="http://www.w3.org/1999/xlink" x="0px" y="0px"
	 viewBox="0 0 600 600" enable-background="new 0 0 600 600" xml:space="preserve">
<path fill="#FFFFFF" d="M436.8,284.7l-2,4.2c-2.2-1.2-5-2.2-6.7-2.2c-1.4,0-2.4,0.5-2.4,1.5c0,3.6,11,1.6,11,9.2
	c0,4.2-3.7,6.4-8.4,6.4c-3.5,0-7.1-1.4-9.5-3.3l2.1-4.1c2.1,1.9,5.3,3.1,7.6,3.1c1.7,0,2.7-0.6,2.7-1.9c0-3.7-11-1.5-11-8.9
	c0-3.8,3.3-6.3,8.3-6.3C431.6,282.4,434.7,283.3,436.8,284.7z"/>
<g>
	<g id="Layer_5_1_">
		<polygon fill="#E0E0E0" points="215.7,507.6 92,389.5 45.5,300.4 31.9,207.3 104.3,147.2 186.2,124.6 195.7,105.9 208,95.9 
			251.1,108.2 260,86.4 292.8,90.6 328.3,109.7 344.6,130.5 470.9,179.9 475.7,224.3 561.7,279.6 565.1,290.5 522,356 507.1,381.3 
			501.6,351.9 445.6,334.8 425.1,345.1 434,356 448.8,377.2 459.2,412.7 466.8,407.9 479.8,387.4 483.2,414.1 451.8,474.8 
			395.8,503.4 332.3,427.7 270.8,459.8 		"/>
	</g>
	
		<linearGradient id="SVGID_1_" gradientUnits="userSpaceOnUse" x1="298.5" y1="-197.4698" x2="298.5" y2="553.5197" gradientTransform="matrix(0.4 0 0 -0.4 180.6 361.4)">
		<stop  offset="3.271244e-04" style="stop-color:#C6C9C8"/>
		<stop  offset="1" style="stop-color:#949494"/>
	</linearGradient>
	<path fill="url(#SVGID_1_)" d="M452.9,420.9l-56.6-15.8l7.7-11.6l50.6,19.9L452.9,420.9z M393.9,320l48.8-30l32.6,8.1l93.1-8.5
		l-0.9-10.3l-91.3,8.4l-35.1-8.8l-54.8,33.6l-50.6,86.2l9,5.2L393.9,320z M254.2,306.3l12.4,20.3l73.7-14.7l-24.9,60.8l9.7,3.9
		l32.2-78.8l-85.4,17L250,279.5l-33.6,140.2l10.1,2.5L254.2,306.3z M144.1,326.3L130.6,298l3.7-2L97.9,230l-9.3,4.7l44.2,92.4
		L107,406.6l9.9,3.3L144.1,326.3z M345.4,172.8v-19.2l-32.6-33l-7.5,7.3l29.6,30v10.2l-28,24.3l2.5-22l-18.7-37.2l-65.4-25.5
		l-19.5,10.9v29l-15-26l-9,5.2l34.4,59.5v-61.6l9.9-5.5l57,22.4l15.6,30.9l-5.2,45.5L345.4,172.8z M331.1,302.4l-83.3,85.3
		l26.2-64.9l31.7-117.4l-14-71.7l-72.2-28.3l18.7,127.7l-22-67.6l-9.9,3.3l40.9,125.9l10.1-2.4l-25-170.6l50.2,19.6l12.4,63.7
		l-30.7,114.2l-45.7,113.3l79.5-81.4l-56.4,126.8l9.6,4.2L331.1,302.4z M268.5,465.4l62.9-33.9l62.7,84.8l62.3-41.1l35.1-61.4
		l-83.3-24.1l9.8-33.1l26.7-16.6l81.5,21.8l30.6-44.6l16.1-35.8l-2.2-0.9l0.3-0.4l-91.2-58.2v-43.6l-112.5-42.9l-104.3-32.6
		l-60.3-11.4l-12.4,26.3L99,146l-71.8,59.7L40.7,303L87,391.6l130.3,124.9L268.5,465.4z M262.2,456.9l-45,45L95.4,385.2l-44.6-85.4
		L38.3,210l65.8-54.7l93.4-28.9l11-23.2l51.7,9.6l103.5,32.3l105.6,40.3v42.1l90.4,57.7l-11.8,26.6L521.8,350L443,328.8L409.1,350
		l-13.9,47l80.6,23.3l-27.3,47.6l-52.1,34.3L334.3,418L262.2,456.9z M450.6,369l-20.8-25.4l-8.1,6.5l19.5,23.9l8.2,26.2l-3.8-1.3
		l-4.8-12.8l-28.8-16l-7.7,20.1l9.7,3.7l3.4-9l15,8.4l5.2,13.9l27.9,9.3L450.6,369z M314.3,400.2l23.7-51.3l22.5-60.6l69.1-27.5
		l-47.6-23.3h36.4l61.4-8.5v-51l-173.7-61.4l-3.4,9.8l166.8,58.9v34.7l-51.4,7.1H337l66.9,32.7l-51.5,20.5l-23.9,64.5l-23,49.8
		L244.3,470l-59.8-140.9l-11.6,61.1l-39.1-95.4l-9.6,3.9l52.5,127.7l11.8-61.8L241.7,490L314.3,400.2z M191.7,229.9v-116l-60.2,46.3
		l-43.6,71.4l11,52.9l-21.3,86.2l10.1,2.5l21.8-88.6l-10.6-51.2l32.3-53.1l63.6,201.1L191.7,229.9z M139.3,167.1l42-32.3v95.1
		l1.7,79.3l-44.5-140.6L139.3,167.1z M328.1,103.5l-36.9-19.1h-36.8l-9.2,25l130.4,39.2L328.1,103.5z M261.8,94.7h27l33.4,17.3
		l14.9,14.1l-78-23.5L261.8,94.7z M522.5,284.4l14.3,16.9l31.1-16.9 M406.8,458.7l79.5-40.2l-83.1-14.4l6-18.7l-9.8-3.3l-10.1,30.1
		l64.1,11l-49.7,25.1l-47.4-74.3l-32.8,50.2l8.8,5.6l23.9-36.8l40.2,63.1l-6.4,52.1l10.3,1.3L406.8,458.7z M345.4,225v-65.7h-10.3
		v62.4l-63.6,91.6l8.5,5.9L345.4,225z M525.4,357.3l-9-5.1l-6.7,11.8l-3.8-14.5l-10.1,2.6l10.3,39.1L525.4,357.3z M490.9,413.4
		l-10.3-39.1l-19.2,33.8l9,5.1l6.7-11.6l3.8,14.5L490.9,413.4z M345.3,400.1L333.1,350l-10.1,2.5l12.2,50.1L345.3,400.1z
		 M446.3,281.4l-16-23l10.6-26.8h-61.4v10.3h46.1l-7.1,17.8l19.1,27.6L446.3,281.4z"/>
	<path fill="#FFFFFF" d="M151,292.9l-3.3,3.8c-1.4-1.8-3.7-2.9-5.6-2.9c-3.5,0-6.1,2.7-6.1,6.4s2.6,6.5,6.1,6.5c1.8,0,4.1-1,5.6-2.6
		l3.3,3.5c-2.4,2.5-5.9,4.1-9.2,4.1c-6.7,0-11.6-4.8-11.6-11.4c0-6.4,5.1-11.1,11.8-11.1C145.4,289.2,148.8,290.6,151,292.9z"/>
	<path fill="#FFFFFF" d="M178.5,307.3l-1.6,4.1h-5.8l9.6-22.1h5.8l9.3,22.1h-6l-1.6-4.1C188.1,307.3,178.5,307.3,178.5,307.3z
		 M183.4,294.9l-3.3,8.2h6.4L183.4,294.9z"/>
	<path fill="#FFFFFF" d="M228,293.9v17.7h-5.6v-17.7h-6.5v-4.6h18.8v4.6H228z"/>
	<path fill="#FFFFFF" d="M271.9,311.5v-8.6h-9.2v8.6h-5.6v-22.1h5.6v9.2h9.2v-9.2h5.6v22.1H271.9z"/>
	<path fill="#FFFFFF" d="M306.8,307.3l-1.6,4.1h-5.8l9.6-22.1h5.8l9.3,22.1h-6l-1.6-4.1C316.5,307.3,306.8,307.3,306.8,307.3z
		 M311.8,294.9l-3.3,8.2h6.4L311.8,294.9z"/>
	<path fill="#FFFFFF" d="M365.4,292.9l-3.3,3.8c-1.4-1.8-3.7-2.9-5.6-2.9c-3.5,0-6.1,2.7-6.1,6.4s2.6,6.5,6.1,6.5
		c1.8,0,4.1-1,5.6-2.6l3.3,3.5c-2.4,2.5-5.9,4.1-9.2,4.1c-6.7,0-11.6-4.8-11.6-11.4c0-6.4,5.1-11.1,11.8-11.1
		C359.8,289.2,363.2,290.6,365.4,292.9z"/>
	<path fill="#FFFFFF" d="M396.6,302.8l-2.9,3.3v5.5H388v-22.1h5.6v9.6l8.5-9.6h6.5l-8.2,9.2l8.8,13h-6.7L396.6,302.8z"/>
	<path fill="#FFFFFF" d="M448.8,291.5l-2.1,4.4c-2.4-1.3-5.2-2.4-7.1-2.4c-1.4,0-2.5,0.5-2.5,1.6c0,3.8,11.6,1.7,11.6,9.7
		c0,4.4-3.9,6.8-8.9,6.8c-3.7,0-7.5-1.4-10.1-3.5l2.2-4.3c2.2,2,5.6,3.3,8,3.3c1.8,0,2.9-0.7,2.9-2c0-3.9-11.6-1.6-11.6-9.4
		c0-4.1,3.5-6.7,8.8-6.7C443.3,289.2,446.5,290.1,448.8,291.5z"/>
</g>
</svg>
