<?xml version="1.0" encoding="utf-8"?>
<!-- Generator: Adobe Illustrator 18.1.1, SVG Export Plug-In . SVG Version: 6.00 Build 0)  -->
<svg version="1.1" xmlns="http://www.w3.org/2000/svg" xmlns:xlink="http://www.w3.org/1999/xlink" x="0px" y="0px"
	 viewBox="0 0 500 500" enable-background="new 0 0 500 500" xml:space="preserve">
<g id="Layer_2">
</g>
<g id="Layer_6">
</g>
<g id="Layer_5">
	<polygon fill="#EDEDED" points="191.1,408.4 96.5,318.1 61,250 50.6,178.8 105.9,132.9 168.5,115.6 175.8,101.3 185.2,93.7 
		218.1,103.1 224.9,86.4 250,89.6 277.1,104.2 289.6,120.1 386.1,157.9 389.8,191.8 455.5,234.1 458.1,242.4 425.2,292.5 
		413.8,311.8 409.6,289.4 366.8,276.3 351.1,284.2 357.9,292.5 369.2,308.7 377.2,335.8 383,332.2 392.9,316.5 395.5,336.9 
		371.5,383.3 328.7,405.2 280.2,347.3 233.2,371.8 	"/>
</g>
<g id="Layer_1">
	<linearGradient id="SVGID_1_" gradientUnits="userSpaceOnUse" x1="255.4773" y1="357" x2="255.4773" y2="127.3883">
		<stop  offset="3.271244e-04" style="stop-color:#C9D0D3"/>
		<stop  offset="0.2874" style="stop-color:#C9D0D3"/>
		<stop  offset="1" style="stop-color:#B8B8B8"/>
	</linearGradient>
	<path fill="url(#SVGID_1_)" d="M372.4,342.1L329.1,330l5.9-8.9l38.7,15.2L372.4,342.1z M327.3,265l37.3-22.9l24.9,6.2l71.2-6.5
		l-0.7-7.9l-69.8,6.4l-26.8-6.7l-41.9,25.7l-38.7,65.9l6.9,4L327.3,265z M220.5,254.5L230,270l56.3-11.2l-19,46.5l7.4,3l24.6-60.2
		l-65.3,13L217.3,234l-25.7,107.2l7.7,1.9L220.5,254.5z M99,265.2 M136.3,269.8L126,248.2l2.8-1.5L101,196.2l-7.1,3.6l33.8,70.6
		L108,331.2l7.6,2.5L136.3,269.8z M290.2,152.5v-14.7l-24.9-25.2l-5.7,5.6l22.6,22.9v7.8l-21.4,18.6l1.9-16.8l-14.3-28.4l-50-19.5
		l-14.9,8.3v22.2l-11.5-19.9l-6.9,4l26.3,45.5v-47.1l7.6-4.2l43.6,17.1l11.9,23.6l-4,34.8L290.2,152.5z M279.3,251.5l-63.7,65.2
		l20-49.6l24.2-89.7l-10.7-54.8l-55.2-21.6l14.3,97.6l-16.8-51.7l-7.6,2.5l31.3,96.2l7.7-1.8l-19.1-130.4l38.4,15l9.5,48.7
		l-23.5,87.3l-34.9,86.6l60.8-62.2l-43.1,96.9l7.3,3.2L279.3,251.5z M368.3,171.6 M231.4,376.1l48.1-25.9l47.9,64.8l47.6-31.4
		l26.8-46.9l-63.7-18.4l7.5-25.3l20.4-12.7l62.3,16.7l23.4-34.1l12.3-27.4l-1.7-0.7l0.2-0.3l-69.7-44.5v-33.3l-86-32.8l-79.7-24.9
		L181,90.3l-9.5,20.1l-69.6,21.6L47,177.6l10.3,74.4l35.4,67.7l99.6,95.5L231.4,376.1z M226.6,369.6L192.2,404l-93.1-89.2L65,249.5
		l-9.5-68.6l50.3-41.8l71.4-22.1l8.4-17.7l39.5,7.3l79.1,24.7l80.7,30.8v32.2l69.1,44.1l-9,20.3l-20,29.2l-60.2-16.2l-25.9,16.2
		l-10.6,35.9l61.6,17.8L369,378l-39.8,26.2l-47.5-64.3L226.6,369.6z M370.6,302.4L354.7,283l-6.2,5l14.9,18.3l6.3,20l-2.9-1
		l-3.7-9.8l-22-12.2l-5.9,15.4l7.4,2.8l2.6-6.9l11.5,6.4l4,10.6l21.3,7.1L370.6,302.4z M266.4,326.3l18.1-39.2l17.2-46.3l52.8-21
		L318.1,202h27.8l46.9-6.5v-39l-132.8-46.9l-2.6,7.5l127.5,45v26.5l-39.3,5.4h-61.8l51.1,25l-39.4,15.7L277.2,284l-17.6,38.1
		l-46.7,57.5l-45.7-107.7l-8.9,46.7l-29.9-72.9l-7.3,3l40.1,97.6l9-47.2l40.7,95.8L266.4,326.3z M172.7,196.1v-88.7l-46,35.4
		l-33.3,54.6l8.4,40.4l-16.3,65.9l7.7,1.9l16.7-67.7l-8.1-39.1l24.7-40.6l48.6,153.7L172.7,196.1z M132.7,148.1l32.1-24.7l0,72.7
		l1.3,60.6l-34-107.5L132.7,148.1z M277,99.5l-28.2-14.6h-28.1l-7,19.1l99.7,30L277,99.5z M226.3,92.8h20.6l25.5,13.2l11.4,10.8
		l-59.6-18L226.3,92.8z M425.6,237.8l10.9,12.9l23.8-12.9 M337.1,371l60.8-30.7l-63.5-11L339,315l-7.5-2.5l-7.7,23l49,8.4l-38,19.2
		l-36.2-56.8l-25.1,38.4l6.7,4.3l18.3-28.1l30.7,48.2l-4.9,39.8l7.9,1L337.1,371z M290.2,192.4v-50.2h-7.9v47.7l-48.6,70l6.5,4.5
		L290.2,192.4z M427.8,293.5l-6.9-3.9l-5.1,9l-2.9-11.1l-7.7,2l7.9,29.9L427.8,293.5z M401.4,336.4l-7.9-29.9l-14.7,25.8l6.9,3.9
		l5.1-8.9l2.9,11.1L401.4,336.4z M290.1,326.2l-9.3-38.3l-7.7,1.9l9.3,38.3L290.1,326.2z M316.7,352 M364,237.8 M353.9,284.3
		 M367.3,235.5l-12.2-17.6l8.1-20.5h-46.9v7.9h35.2l-5.4,13.6l14.6,21.1L367.3,235.5z M316.4,278.5 M298.6,237.8"/>
	<g>
		<path fill="none" stroke="#FFFFFF" stroke-miterlimit="10" d="M141.6,244.3l-2.5,2.9c-1.1-1.4-2.8-2.2-4.3-2.2
			c-2.7,0-4.7,2.1-4.7,4.9c0,2.8,2,5,4.7,5c1.4,0,3.1-0.8,4.3-2l2.5,2.7c-1.8,1.9-4.5,3.1-7,3.1c-5.1,0-8.9-3.7-8.9-8.7
			c0-4.9,3.9-8.5,9-8.5C137.3,241.4,139.9,242.5,141.6,244.3z"/>
		<path fill="none" stroke="#FFFFFF" stroke-miterlimit="10" d="M162.6,255.3l-1.2,3.1H157l7.3-16.9h4.4l7.1,16.9h-4.6l-1.2-3.1
			H162.6z M166.4,245.8l-2.5,6.3h4.9L166.4,245.8z"/>
		<path fill="none" stroke="#FFFFFF" stroke-miterlimit="10" d="M200.5,245v13.5h-4.3V245h-5v-3.5h14.4v3.5H200.5z"/>
		<path fill="none" stroke="#FFFFFF" stroke-miterlimit="10" d="M234,258.5v-6.6h-7v6.6h-4.3v-16.9h4.3v7h7v-7h4.3v16.9H234z"/>
		<path fill="none" stroke="#FFFFFF" stroke-miterlimit="10" d="M260.7,255.3l-1.2,3.1h-4.4l7.3-16.9h4.4l7.1,16.9h-4.6l-1.2-3.1
			H260.7z M264.5,245.8l-2.5,6.3h4.9L264.5,245.8z"/>
		<path fill="none" stroke="#FFFFFF" stroke-miterlimit="10" d="M305.5,244.3l-2.5,2.9c-1.1-1.4-2.8-2.2-4.3-2.2
			c-2.7,0-4.7,2.1-4.7,4.9c0,2.8,2,5,4.7,5c1.4,0,3.1-0.8,4.3-2l2.5,2.7c-1.8,1.9-4.5,3.1-7,3.1c-5.1,0-8.9-3.7-8.9-8.7
			c0-4.9,3.9-8.5,9-8.5C301.2,241.4,303.8,242.5,305.5,244.3z"/>
		<path fill="none" stroke="#FFFFFF" stroke-miterlimit="10" d="M329.3,251.8l-2.2,2.5v4.2h-4.3v-16.9h4.3v7.3l6.5-7.3h5l-6.3,7
			l6.7,9.9h-5.1L329.3,251.8z"/>
		<path fill="none" stroke="#FFFFFF" stroke-miterlimit="10" d="M369.2,243.2l-1.6,3.4c-1.8-1-4-1.8-5.4-1.8c-1.1,0-1.9,0.4-1.9,1.2
			c0,2.9,8.9,1.3,8.9,7.4c0,3.4-3,5.2-6.8,5.2c-2.8,0-5.7-1.1-7.7-2.7l1.7-3.3c1.7,1.5,4.3,2.5,6.1,2.5c1.4,0,2.2-0.5,2.2-1.5
			c0-3-8.9-1.2-8.9-7.2c0-3.1,2.7-5.1,6.7-5.1C365,241.4,367.5,242.1,369.2,243.2z"/>
	</g>
</g>
<g id="Layer_4">
	<path fill="none" stroke="#FFFFFF" stroke-width="4" stroke-miterlimit="10" d="M140.6,254.6c0,0-4.9,4.5-9.8,1.2
		c-4.8-3.3-2.1-9.1-2.1-9.1s4-5,7.8-3c1.2,0.6,1.1,0.3,1.8,0.6c1.5,0.6,2.1,1.3,2.1,1.3"/>
	<line fill="none" stroke="#FFFFFF" stroke-width="4" stroke-miterlimit="10" x1="198.3" y1="258.5" x2="198.3" y2="241.5"/>
	<line fill="none" stroke="#FFFFFF" stroke-width="4" stroke-miterlimit="10" x1="191.1" y1="243.4" x2="205.6" y2="243.4"/>
	<line fill="none" stroke="#FFFFFF" stroke-width="4.2" stroke-miterlimit="10" x1="224.8" y1="258.5" x2="224.8" y2="241.5"/>
	<line fill="none" stroke="#FFFFFF" stroke-width="4.2" stroke-miterlimit="10" x1="235.9" y1="258.5" x2="235.9" y2="241.5"/>
	<line fill="none" stroke="#FFFFFF" stroke-width="3.2" stroke-miterlimit="10" x1="225.9" y1="250" x2="235.3" y2="250"/>
	<path fill="none" stroke="#FFFFFF" stroke-width="4" stroke-miterlimit="10" d="M304.6,254.5c0,0-4.9,4.5-9.8,1.2
		c-4.8-3.3-2.1-9.1-2.1-9.1s4-5,7.8-3c1.2,0.6,1.1,0.3,1.8,0.6c1.5,0.6,2.1,1.3,2.1,1.3"/>
	<line fill="none" stroke="#FFFFFF" stroke-width="4" stroke-miterlimit="10" x1="324.9" y1="258.5" x2="324.9" y2="241.5"/>
	<line fill="none" stroke="#FFFFFF" stroke-width="4" stroke-miterlimit="10" x1="325.9" y1="253.8" x2="334.8" y2="242.7"/>
	<line fill="none" stroke="#FFFFFF" stroke-width="4" stroke-miterlimit="10" x1="330.8" y1="249.5" x2="335.6" y2="257.9"/>
	<path fill="none" stroke="#FFFFFF" stroke-width="4" stroke-miterlimit="10" d="M355.9,254.5c0,0,4.4,3.7,9,1.9
		c0,0,6.6-3.7-2.9-6.9c0,0-6.3-1-3-5.4c0,0,3.5-2.5,9.4,0.8"/>
	<line fill="none" stroke="#FFFFFF" stroke-width="4" stroke-miterlimit="10" x1="159.6" y1="257.9" x2="166.4" y2="242"/>
	<line fill="none" stroke="#FFFFFF" stroke-width="4" stroke-miterlimit="10" x1="173.3" y1="257.6" x2="166.8" y2="242"/>
	<line fill="none" stroke="#FFFFFF" stroke-width="3" stroke-miterlimit="10" x1="162.6" y1="253.7" x2="170.4" y2="253.7"/>
	<polyline fill="none" stroke="#FFFFFF" stroke-miterlimit="10" points="159.8,255.2 158,257.9 160.1,257.9 	"/>
	<polyline fill="none" stroke="#FFFFFF" stroke-miterlimit="10" points="174.1,256.6 175.2,258.2 173,257.6 172.2,257.9 	"/>
	<line fill="none" stroke="#FFFFFF" stroke-width="4" stroke-miterlimit="10" x1="257.8" y1="257.8" x2="264.6" y2="241.9"/>
	<line fill="none" stroke="#FFFFFF" stroke-width="4" stroke-miterlimit="10" x1="271.5" y1="257.5" x2="265.1" y2="241.9"/>
	<line fill="none" stroke="#FFFFFF" stroke-width="3" stroke-miterlimit="10" x1="260.8" y1="253.6" x2="268.7" y2="253.6"/>
	<polyline fill="none" stroke="#FFFFFF" stroke-miterlimit="10" points="258,255.1 256.3,257.8 258.3,257.8 	"/>
	<polyline fill="none" stroke="#FFFFFF" stroke-miterlimit="10" points="272.4,256.5 273.4,258.1 271.3,257.5 270.4,257.8 	"/>
	<polyline fill="none" stroke="#FFFFFF" stroke-miterlimit="10" points="335.4,243.8 337.5,241.5 335.1,241.5 333.9,242.3 
		336.1,242 334.8,243.1 	"/>
	<polyline fill="none" stroke="#FFFFFF" stroke-miterlimit="10" points="338,258.1 336.1,256.7 335.3,257.9 337.3,257.9 	"/>
</g>
<g id="Layer_3" display="none">
	<g display="inline">
		<path fill="#FFFFFF" d="M141.6,244.3l-2.5,2.9c-1.1-1.4-2.8-2.2-4.3-2.2c-2.7,0-4.7,2.1-4.7,4.9c0,2.8,2,5,4.7,5
			c1.4,0,3.1-0.8,4.3-2l2.5,2.7c-1.8,1.9-4.5,3.1-7,3.1c-5.1,0-8.9-3.7-8.9-8.7c0-4.9,3.9-8.5,9-8.5
			C137.3,241.4,139.9,242.5,141.6,244.3z"/>
		<path fill="#FFFFFF" d="M162.6,255.3l-1.2,3.1H157l7.3-16.9h4.4l7.1,16.9h-4.6l-1.2-3.1H162.6z M166.4,245.8l-2.5,6.3h4.9
			L166.4,245.8z"/>
		<path fill="#FFFFFF" d="M200.5,245v13.5h-4.3V245h-5v-3.5h14.4v3.5H200.5z"/>
		<path fill="#FFFFFF" d="M234,258.5v-6.6h-7v6.6h-4.3v-16.9h4.3v7h7v-7h4.3v16.9H234z"/>
		<path fill="#FFFFFF" d="M260.7,255.3l-1.2,3.1h-4.4l7.3-16.9h4.4l7.1,16.9h-4.6l-1.2-3.1H260.7z M264.5,245.8l-2.5,6.3h4.9
			L264.5,245.8z"/>
		<path fill="#FFFFFF" d="M305.5,244.3l-2.5,2.9c-1.1-1.4-2.8-2.2-4.3-2.2c-2.7,0-4.7,2.1-4.7,4.9c0,2.8,2,5,4.7,5
			c1.4,0,3.1-0.8,4.3-2l2.5,2.7c-1.8,1.9-4.5,3.1-7,3.1c-5.1,0-8.9-3.7-8.9-8.7c0-4.9,3.9-8.5,9-8.5
			C301.2,241.4,303.8,242.5,305.5,244.3z"/>
		<path fill="#FFFFFF" d="M329.3,251.8l-2.2,2.5v4.2h-4.3v-16.9h4.3v7.3l6.5-7.3h5l-6.3,7l6.7,9.9h-5.1L329.3,251.8z"/>
		<path fill="#FFFFFF" d="M369.2,243.2l-1.6,3.4c-1.8-1-4-1.8-5.4-1.8c-1.1,0-1.9,0.4-1.9,1.2c0,2.9,8.9,1.3,8.9,7.4
			c0,3.4-3,5.2-6.8,5.2c-2.8,0-5.7-1.1-7.7-2.7l1.7-3.3c1.7,1.5,4.3,2.5,6.1,2.5c1.4,0,2.2-0.5,2.2-1.5c0-3-8.9-1.2-8.9-7.2
			c0-3.1,2.7-5.1,6.7-5.1C365,241.4,367.5,242.1,369.2,243.2z"/>
	</g>
</g>
</svg>
