<?xml version="1.0" encoding="utf-8"?>
<!-- Generator: Adobe Illustrator 18.1.1, SVG Export Plug-In . SVG Version: 6.00 Build 0)  -->
<svg version="1.1" id="Layer_1" xmlns="http://www.w3.org/2000/svg" xmlns:xlink="http://www.w3.org/1999/xlink" x="0px" y="0px"
	 viewBox="0 0 435 600" enable-background="new 0 0 435 600" xml:space="preserve">
<image overflow="visible" enable-background="new    " width="1317" height="1317" xlink:href="8FCE23242B0E0187.png"  transform="matrix(0.3293 0 0 0.3294 0.7278 -0.5808)">
</image>
<polygon fill="#E3F0F3" points="0.8,137.4 21.1,137.4 29.4,181.9 91,225.5 134.8,248.8 147.8,265.4 291,302.1 434,219.6 434,-0.6 
	0.8,-0.6 "/>
<linearGradient id="SVGID_1_" gradientUnits="userSpaceOnUse" x1="-508.1757" y1="344.5609" x2="-533.4125" y2="388.2903" gradientTransform="matrix(5.1936 0 0 5.1936 2892.1663 -1693.17)">
	<stop  offset="0" style="stop-color:#E5F0F3"/>
	<stop  offset="1" style="stop-color:#94BFD5"/>
</linearGradient>
<polygon fill="url(#SVGID_1_)" points="133.2,65.1 290.4,89.7 295.6,261 234.3,205.2 "/>
<polygon fill="#EBF4F6" points="234.3,205.2 146.1,165.2 133.2,65.1 "/>
<polyline fill="#D4E6ED" points="133.2,65.1 1.2,14.3 1.2,-0.5 30.9,-0.5 133.2,65.1 "/>
<linearGradient id="SVGID_2_" gradientUnits="userSpaceOnUse" x1="-515.0505" y1="371.8145" x2="-517.6332" y2="376.7249" gradientTransform="matrix(5.1936 0 0 5.1936 2892.1663 -1693.17)">
	<stop  offset="0" style="stop-color:#E5F0F3"/>
	<stop  offset="1" style="stop-color:#D1E5EC"/>
</linearGradient>
<polyline fill="url(#SVGID_2_)" points="146.1,266.6 235.7,206.5 260.3,228.7 260.3,262.3 146.1,266.6 "/>
<polygon fill="#C8E0E9" points="146.1,165.2 146.1,266.6 235.7,206.5 "/>
<linearGradient id="SVGID_3_" gradientUnits="userSpaceOnUse" x1="-517.2968" y1="341.7353" x2="-517.2968" y2="336.9165" gradientTransform="matrix(5.1936 0 0 5.1936 2892.1663 -1693.17)">
	<stop  offset="0" style="stop-color:#C0DBE7"/>
	<stop  offset="1" style="stop-color:#CDE2EB"/>
</linearGradient>
<polyline fill="url(#SVGID_3_)" points="95.6,-0.5 315.4,-0.5 95.6,-0.5 133.2,65.1 290.4,89.7 315.4,-0.5 95.6,-0.5 "/>
<linearGradient id="SVGID_4_" gradientUnits="userSpaceOnUse" x1="-556.6428" y1="343.291" x2="-528.7285" y2="343.291" gradientTransform="matrix(5.1936 0 0 5.1936 2892.1663 -1693.17)">
	<stop  offset="0" style="stop-color:#C4DDE8"/>
	<stop  offset="1" style="stop-color:#ACCEDF"/>
</linearGradient>
<polyline fill="url(#SVGID_4_)" points="133.2,65.1 146.1,165.2 1.2,37.9 1.2,14.3 133.2,65.1 "/>
<linearGradient id="SVGID_5_" gradientUnits="userSpaceOnUse" x1="-546.6758" y1="351.99" x2="-543.4633" y2="346.8142" gradientTransform="matrix(5.1936 0 0 5.1936 2892.1663 -1693.17)">
	<stop  offset="0" style="stop-color:#CEE2EB"/>
	<stop  offset="1" style="stop-color:#DCECF0"/>
</linearGradient>
<polygon fill="url(#SVGID_5_)" points="146.1,165.2 45.5,140.5 1.2,71.7 1.2,37.9 "/>
<polygon fill="#C6DEE9" points="1.2,112.6 45.5,140.5 1.2,71.7 "/>
<path fill="#EBF4F5" d="M45.5,140.5"/>
<linearGradient id="SVGID_6_" gradientUnits="userSpaceOnUse" x1="-541.1191" y1="364.5772" x2="-542.9039" y2="358.1521" gradientTransform="matrix(5.1936 0 0 5.1936 2892.1663 -1693.17)">
	<stop  offset="0" style="stop-color:#CFE4EB"/>
	<stop  offset="1" style="stop-color:#E8F3F4"/>
</linearGradient>
<polygon fill="url(#SVGID_6_)" points="28.7,184.3 125.6,188.9 127.3,188.9 118,158.3 45.5,140.5 "/>
<polygon fill="#F2F7F7" points="18.2,140.5 45.5,140.5 28.7,184.3 "/>
<polygon fill="#F2F7F7" points="89.5,225.7 127.3,188.9 28.7,184.3 "/>
<linearGradient id="SVGID_7_" gradientUnits="userSpaceOnUse" x1="-525.5057" y1="378.4885" x2="-508.0153" y2="371.8849" gradientTransform="matrix(5.1936 0 0 5.1936 2892.1663 -1693.17)">
	<stop  offset="0" style="stop-color:#CFE4EB"/>
	<stop  offset="1" style="stop-color:#E8F3F4"/>
</linearGradient>
<polyline fill="url(#SVGID_7_)" points="295.6,261 146.1,266.6 235.7,206.5 295.6,261 "/>
<polygon fill="#D2E5ED" points="45.5,140.5 1.2,138.9 1.2,112.6 "/>
<polygon fill="#D8E9EF" points="127.3,188.9 146.1,165.2 118,158.3 "/>
<linearGradient id="SVGID_8_" gradientUnits="userSpaceOnUse" x1="-535.0626" y1="374.2754" x2="-533.4628" y2="363.4953" gradientTransform="matrix(5.1936 0 0 5.1936 2892.1663 -1693.17)">
	<stop  offset="0" style="stop-color:#CFE4EB"/>
	<stop  offset="1" style="stop-color:#E8F3F4"/>
</linearGradient>
<polygon fill="url(#SVGID_8_)" points="127.3,188.9 89.5,225.7 135.1,249.7 146.1,214 146.1,165.2 "/>
<linearGradient id="SVGID_9_" gradientUnits="userSpaceOnUse" x1="-531.006" y1="375.1727" x2="-529.688" y2="373.4987" gradientTransform="matrix(5.1936 0 0 5.1936 2892.1663 -1693.17)">
	<stop  offset="0" style="stop-color:#CFE4EB"/>
	<stop  offset="1" style="stop-color:#E8F3F4"/>
</linearGradient>
<polyline fill="url(#SVGID_9_)" points="146.1,266.6 135.1,249.7 146.1,214 146.1,266.6 "/>
<polygon fill="#92BFD5" points="422,48.7 371.1,0.4 431.1,0.4 "/>
<polygon fill="#B2D2E1" points="433.6,63.2 422,48.7 431.1,0.4 433.6,0.4 "/>
<polygon fill="#EAF4F5" points="434,186.4 434,220 291.8,302.5 "/>
<linearGradient id="SVGID_10_" gradientUnits="userSpaceOnUse" x1="-486.2394" y1="357.2032" x2="-478.7435" y2="363.896" gradientTransform="matrix(5.1936 0 0 5.1936 2892.1663 -1693.17)">
	<stop  offset="0" style="stop-color:#C6DEE8"/>
	<stop  offset="1" style="stop-color:#B9D6E4"/>
</linearGradient>
<polygon fill="url(#SVGID_10_)" points="295.6,261 422,48.7 432.6,60.9 432.6,178 "/>
<linearGradient id="SVGID_11_" gradientUnits="userSpaceOnUse" x1="-543.2862" y1="328.1189" x2="-533.9494" y2="345.4902" gradientTransform="matrix(5.1936 0 0 5.1936 2892.1663 -1693.17)">
	<stop  offset="0" style="stop-color:#B0D1E0"/>
	<stop  offset="1" style="stop-color:#ADCFDF"/>
</linearGradient>
<polygon fill="url(#SVGID_11_)" points="133.2,65.1 95.6,-0.5 30.9,-0.5 "/>
<polyline fill="#EBF4F5" points="290.4,305 146.1,266.6 295.6,261 290.4,305 "/>
<linearGradient id="SVGID_12_" gradientUnits="userSpaceOnUse" x1="-492.4476" y1="351.3937" x2="-487.4768" y2="356.1159" gradientTransform="matrix(5.1936 0 0 5.1936 2892.1663 -1693.17)">
	<stop  offset="0" style="stop-color:#94BFD5"/>
	<stop  offset="0.9729" style="stop-color:#88B8D1"/>
</linearGradient>
<polygon fill="url(#SVGID_12_)" points="295.6,261 290.4,89.7 422,48.7 "/>
<polyline fill="#A7CBDD" points="422,48.7 372.9,-0.5 422,48.7 290.4,89.7 315.4,-0.5 372.9,-0.5 "/>
<linearGradient id="SVGID_13_" gradientUnits="userSpaceOnUse" x1="-485.3933" y1="370.8445" x2="-501.813" y2="381.3744" gradientTransform="matrix(5.1936 0 0 5.1936 2892.1663 -1693.17)">
	<stop  offset="0" style="stop-color:#D7E8EE"/>
	<stop  offset="1" style="stop-color:#B9D6E4"/>
</linearGradient>
<polygon fill="url(#SVGID_13_)" points="290.4,305 295.6,261 432.6,178 432.6,188.9 "/>
<rect x="69.4" y="203.9" transform="matrix(0.2814 0.9596 -0.9596 0.2814 315.0215 130.9079)" fill="#91BED6" width="1.4" height="143.9"/>
<polygon fill="#91BED6" points="157.6,356.1 157,355.8 37.3,285.3 79.3,218.8 80.4,219.5 39.1,284.9 157.2,354.2 208,282.8 
	209.1,283.6 "/>
<polygon fill="#91BED6" points="157.4,355.9 157.2,355.8 70.7,341 70.8,339.6 157.2,354.4 246.3,292.3 247,293.4 "/>
<rect x="104.4" y="372.8" transform="matrix(0.8752 0.4838 -0.4838 0.8752 200.5741 -30.334)" fill="#91BED6" width="109.3" height="1.4"/>
<rect x="231.2" y="290.4" transform="matrix(0.9815 0.1914 -0.1914 0.9815 65.5947 -38.461)" fill="#91BED6" width="1.4" height="59.9"/>
<rect x="245" y="293.2" transform="matrix(0.9049 0.4256 -0.4256 0.9049 162.0047 -73.5921)" fill="#91BED6" width="1.4" height="65"/>
<rect x="48.4" y="203.9" transform="matrix(0.5737 0.819 -0.819 0.5737 224.961 66.0148)" fill="#91BED6" width="1.4" height="90.6"/>
<rect x="46.2" y="321.6" transform="matrix(0.4079 0.913 -0.913 0.4079 328.6452 137.7428)" fill="#91BED6" width="23.9" height="1.4"/>
<rect x="82.2" y="227.8" transform="matrix(0.9486 0.3165 -0.3165 0.9486 93.3245 -11.7861)" fill="#91BED6" width="1.4" height="107.2"/>
<rect x="75.9" y="224.5" transform="matrix(0.8672 0.498 -0.498 0.8672 145.1676 -2.1338)" fill="#91BED6" width="1.4" height="93.1"/>
<rect x="111.3" y="268.8" transform="matrix(0.3997 0.9167 -0.9167 0.3997 355.1683 85.9167)" fill="#91BED6" width="1.4" height="90.7"/>
<rect x="69.9" y="347" transform="matrix(0.9903 0.1387 -0.1387 0.9903 49.6622 -17.2566)" fill="#91BED6" width="157.5" height="1.4"/>
<line fill="none" x1="69.5" y1="341" x2="207.7" y2="405.6"/>
<line fill="none" stroke="#A1D0E5" stroke-miterlimit="10" x1="216.5" y1="399.9" x2="226.7" y2="366.8"/>
<rect x="138.7" y="305.9" transform="matrix(0.6067 0.795 -0.795 0.6067 318.6433 -30.7208)" fill="#91BED6" width="103.3" height="1.4"/>
<path fill="#91BED6" d="M1.2,266.1l-0.7,0.6c0,0.1,0,0.1,0,0.3v0.1c0,0.1,0,0.3,0,0.3l8.9,10.3l1.1-1L1.2,266.1z"/>
<rect x="383.5" y="-26.5" transform="matrix(0.1875 0.9823 -0.9823 0.1875 331.2156 -361.5644)" fill="#D5E7ED" width="1.4" height="91.8"/>
<rect x="166.5" y="13.6" transform="matrix(0.9826 0.1855 -0.1855 0.9826 6.9189 -45.4501)" fill="#D5E7ED" width="159.8" height="1.4"/>
<path fill="#91BED6" d="M0.8,325.6c0,0.1,0,0.3,0,0.4c0,0.3-0.1,0.7-0.1,1l61.1,13l0.3-1.4L0.8,325.6z"/>
<g>
	<path fill="#91BED6" d="M74.4,215.3c-1.1-0.6-2.1-1.3-3.1-2.1L1,183.5l-0.6,1.3l75.1,31.7v-0.1C75.3,216.1,74.8,215.7,74.4,215.3z"
		/>
</g>
<rect x="9" y="295.4" transform="matrix(0.7863 0.6178 -0.6178 0.7863 190.1777 42.4145)" fill="#91BED6" width="49.5" height="1.4"/>
<rect x="0" y="235.5" transform="matrix(0.9715 0.2372 -0.2372 0.9715 56.8607 -0.1815)" fill="#91BED6" width="58.5" height="1.4"/>
<rect x="259.7" y="292.6" transform="matrix(0.761 0.6487 -0.6487 0.761 272.9373 -91.2763)" fill="#91BED6" width="1.4" height="64.5"/>
<rect x="338.3" y="216.7" transform="matrix(0.3535 0.9354 -0.9354 0.3535 516.932 -111.3371)" fill="#91BED6" width="1.4" height="203.3"/>
<rect x="327.4" y="224.9" transform="matrix(0.4666 0.8845 -0.8845 0.4666 479.8853 -106.3117)" fill="#A1D0E5" width="1.4" height="239.6"/>
<rect x="327.3" y="254.1" transform="matrix(0.3311 0.9436 -0.9436 0.3311 565.1299 -64.4774)" fill="#A1D0E5" width="1.4" height="224.5"/>
<rect x="297.2" y="91.2" transform="matrix(0.5845 0.8114 -0.8114 0.5845 228.9088 -263.2904)" fill="#D5E7ED" width="148.7" height="1.4"/>
<rect x="288.4" y="37.5" transform="matrix(0.8987 0.4386 -0.4386 0.8987 76.073 -115.9858)" fill="#D5E7ED" width="1.4" height="138.3"/>
<rect x="346.4" y="101.3" transform="matrix(0.1191 0.9929 -0.9929 0.1191 467.22 -201.4145)" fill="#D5E7EE" width="1.4" height="122.5"/>
<circle fill="#EBF4F5" cx="230.1" cy="357.5" r="15.3"/>
<circle fill="#EBF4F5" cx="215.2" cy="406.2" r="10.3"/>
<circle fill="#C7DFE9" cx="65.8" cy="336.1" r="6.1"/>
<circle fill="#6FAAC9" cx="11.8" cy="278.8" r="4.7"/>
<circle fill="#5C9EC3" cx="413.9" cy="152.5" r="10"/>
<rect x="16.8" y="51.1" transform="matrix(0.3369 0.9415 -0.9415 0.3369 96.6885 -33.7015)" fill="#EBFBFF" width="110.9" height="1.4"/>
<rect x="-15.6" y="62.3" transform="matrix(0.7298 0.6836 -0.6836 0.7298 54.9825 -13.0567)" fill="#EBFBFF" width="119.3" height="1.4"/>
<rect x="-7.3" y="78.1" transform="matrix(0.8489 0.5286 -0.5286 0.8489 48.3143 -11.3718)" fill="#EBFBFF" width="102.7" height="1.4"/>
<path fill="#D5E7ED" d="M82.8,221.1c0.1,0.1,0.3,0.1,0.3,0.3h0.1l5.9-113.7l-1.4-0.1L82,220.7C82.2,220.8,82.5,221,82.8,221.1z"/>
<polygon fill="#EBFBFF" points="165.7,259.5 91.2,106.6 257.5,171 256.9,172.4 94,109.1 166.9,258.9 "/>
<circle fill="#E9F3F4" cx="91.6" cy="106.6" r="6.1"/>
<circle fill="#D5E7ED" cx="328.2" cy="32.6" r="15.9"/>
<circle fill="#EBF4F5" cx="429" cy="11" r="6.1"/>
<rect x="243.2" y="173.7" transform="matrix(0.9877 0.1563 -0.1563 0.9877 43.7723 -34.9197)" fill="#D8E9EA" width="1.4" height="174.4"/>
<circle fill="#5C9EC3" cx="258.9" cy="168.9" r="6.6"/>
<path fill="none" d="M69.8,66.5v156.4h79.5v-99.8c-0.3-12.4-17.2-9.8-17.2-9.8c-9.1,0.7-7.7-5.2-7.7-5.2h24.7h12.8h2.9h1.4h12.8H207
	c0,0,1.4,5.9-7.7,5.2c0,0-17-2.5-17.2,9.8v99.8h38.9V66.7H69.8V66.5z"/>
<path fill="none" d="M262,378.7V222.1h-79.5v99.8c0.3,12.4,17.2,9.8,17.2,9.8c9.1-0.7,7.7,5.2,7.7,5.2h-24.7h-12.8h-2.9h-1.4h-12.8
	h-27.9c0,0-1.4-5.9,7.7-5.2c0,0,17,2.5,17.2-9.8v-99.8h-39.1v156.4H262V378.7z"/>
<polyline fill="#D7E8EE" points="432.2,189.3 434,187.6 434,177.7 432.6,178 432.6,60.9 434,63.6 434,152.5 "/>
<polygon fill="#92BFD5" points="373.7,0.4 372.9,-0.5 431.4,-0.6 431.1,0.4 422.8,4.2 "/>
<path fill="#B2D2E1" d="M432.6,15.9l0.6,45.8l1,1.8V14.1C433.7,14.8,433.2,15.5,432.6,15.9z"/>
<path fill="#B2D2E1" d="M434,7.9v-8.5h-2.7l-0.3,1l0.4,5C432.8,6,433.6,6.9,434,7.9z"/>
<linearGradient id="SVGID_14_" gradientUnits="userSpaceOnUse" x1="-473.5586" y1="349.0135" x2="-473.2909" y2="349.0135" gradientTransform="matrix(5.1936 0 0 5.1936 2892.1663 -1693.17)">
	<stop  offset="0" style="stop-color:#C6DEE8"/>
	<stop  offset="1" style="stop-color:#B9D6E4"/>
</linearGradient>
<polygon fill="url(#SVGID_14_)" points="432.6,178 434,177.7 434,63.6 432.6,60.9 "/>
<rect x="116.6" y="103.5" fill="none" width="750.7" height="500.5"/>
<path fill="#508DAD" d="M213.1,337.5c0,2-1.4,2.8-4,2.8h-3.3c-1.4-0.7-16.6-1-45.6-1c-5.6,0-11.2,0.3-16.9,0.7
	c-2.9,0.3-7.4,0.3-13.4,0.3c-2.9,0-4.3-1-4.3-3.1c0-1.8,2.9-2.8,8.8-3.1c8.9-0.3,14.2-1.3,15.8-3.2c1.5-2,2.4-8.4,2.4-19.4V135
	c0-11-0.6-17.2-1.7-18.6c-1.4-2.2-7.7-3.6-18.7-4c-4.3-0.1-6.4-1-6.4-2.4c0-1.8,1.4-2.7,4-2.7h45.6c3.3,0,9.9,0.1,19.7,0.3l12.8-0.3
	c3.6,0,5.4,1,5.4,2.9c0,1.7-5,2.8-14.9,3.2c-5.7,0.3-9.1,1.3-10.3,3.1c-1.3,1.8-1.8,6.6-1.8,14.1v178.7c0,12.8,0.6,19.7,1.7,20.8
	c2.5,2.5,9.8,3.9,21.9,4.3C211.9,334.7,213.1,335.7,213.1,337.5z"/>
<path fill="#508DAD" d="M318.3,337.5c0,2-1.4,2.8-4,2.8h-3.3c-1.4-0.7-16.6-1-45.6-1c-5.6,0-11.2,0.3-16.7,0.7
	c-2.9,0.3-7.4,0.3-13.4,0.3c-2.9,0-4.3-1-4.3-3.1c0-1.8,2.9-2.8,8.8-3.1c8.9-0.3,14.2-1.3,15.8-3.2s2.4-8.4,2.4-19.4V135
	c0-11-0.6-17.2-1.7-18.6c-1.4-2.2-7.7-3.6-18.7-4c-4.3-0.1-6.4-1-6.4-2.4c0-1.8,1.4-2.7,4-2.7h45.6c3.3,0,9.9,0.1,19.7,0.3l12.8-0.3
	c3.6,0,5.4,1,5.4,2.9c0,1.7-5,2.8-14.9,3.2c-5.7,0.3-9.1,1.3-10.3,3.1c-1.3,1.8-1.8,6.6-1.8,14.1v178.7c0,12.8,0.6,19.7,1.7,20.8
	c2.5,2.5,9.8,3.9,21.9,4.3C317.1,334.7,318.3,335.7,318.3,337.5z"/>
<path fill="#508DAD" d="M62.4,499.1v7.1c0,8.7-4.3,13.5-12.6,13.5s-12.6-4.9-12.6-13.5v-27.9c0-8.7,4.3-13.5,12.6-13.5
	s12.6,4.9,12.6,13.5v5.2h-8v-5.7c0-3.9-1.7-5.3-4.3-5.3c-2.7,0-4.3,1.4-4.3,5.3v29c0,3.8,1.7,5.2,4.3,5.2s4.3-1.4,4.3-5.2v-7.7H62.4
	z"/>
<path fill="#508DAD" d="M106.8,519.2h-8.5l-1.4-9.8H86.6l-1.4,9.8h-7.8l8.7-53.7h12.4L106.8,519.2z M87.5,502.2h8.1l-4-27.2
	L87.5,502.2z"/>
<path fill="#508DAD" d="M120.1,465.5h26.1v7.7h-8.8v46H129v-46h-8.9V465.5z"/>
<path fill="#508DAD" d="M170.1,519.2h-8.4v-53.7h8.4v23h9.6v-23h8.7v53.7h-8.7v-23h-9.6V519.2z"/>
<path fill="#508DAD" d="M233.8,519.2h-8.5l-1.4-9.8h-10.3l-1.4,9.8h-7.8l8.7-53.7h12.4L233.8,519.2z M214.5,502.2h8.1l-4-27.2
	L214.5,502.2z"/>
<path fill="#508DAD" d="M274.1,499.1v7.1c0,8.7-4.3,13.5-12.6,13.5c-8.2,0-12.6-4.9-12.6-13.5v-27.9c0-8.7,4.3-13.5,12.6-13.5
	c8.2,0,12.6,4.9,12.6,13.5v5.2h-8v-5.7c0-3.9-1.7-5.3-4.3-5.3s-4.3,1.4-4.3,5.3v29c0,3.8,1.7,5.2,4.3,5.2s4.3-1.4,4.3-5.2v-7.7
	H274.1z"/>
<path fill="#508DAD" d="M302.1,497.8l-2.7,4.9v16.5h-8.4v-53.7h8.4v23.4l11-23.4h8.4l-11.7,24l11.7,29.7h-8.7L302.1,497.8z"/>
<path fill="#508DAD" d="M346.1,464.9c8.2,0,12.4,4.9,12.4,13.5v1.7h-8v-2.2c0-3.9-1.5-5.3-4.2-5.3c-2.7,0-4.2,1.4-4.2,5.3
	c0,11,16.5,13.1,16.5,28.5c0,8.7-4.3,13.5-12.6,13.5s-12.6-4.9-12.6-13.5V503h8v3.9c0,3.8,1.7,5.2,4.3,5.2c2.7,0,4.3-1.4,4.3-5.2
	c0-11-16.5-13.1-16.5-28.5C333.7,469.8,337.9,464.9,346.1,464.9z"/>
<path fill="#508DAD" d="M375.4,465.5h8.4v53.7h-8.4V465.5z"/>
<path fill="#508DAD" d="M389.9,465.5h8.4v53.7h-8.4V465.5z"/>
<g>
	<path fill="#508DAD" d="M150.6,544.6h-3.8v-0.9c0-0.9-0.2-1.6-0.6-2.2s-1.1-0.9-2.1-0.9c-0.5,0-0.9,0.1-1.3,0.3
		c-0.3,0.2-0.6,0.5-0.8,0.8c-0.2,0.3-0.3,0.7-0.4,1.1c-0.1,0.4-0.1,0.8-0.1,1.3c0,0.5,0,1,0.1,1.3s0.1,0.7,0.3,0.9
		c0.1,0.3,0.4,0.5,0.6,0.7c0.3,0.2,0.7,0.4,1.2,0.6l2.9,1.1c0.8,0.3,1.5,0.7,2,1.1c0.5,0.4,0.9,0.9,1.2,1.5c0.3,0.6,0.5,1.2,0.6,2
		c0.1,0.8,0.1,1.6,0.1,2.6c0,1.1-0.1,2.1-0.3,3.1c-0.2,1-0.6,1.8-1.1,2.4c-0.5,0.7-1.2,1.2-2,1.6c-0.8,0.4-1.9,0.6-3.1,0.6
		c-0.9,0-1.8-0.2-2.6-0.5c-0.8-0.3-1.5-0.8-2-1.3c-0.6-0.6-1-1.2-1.4-2s-0.5-1.6-0.5-2.5v-1.4h3.8v1.2c0,0.7,0.2,1.3,0.6,1.9
		c0.4,0.6,1.1,0.8,2.1,0.8c0.6,0,1.1-0.1,1.5-0.3c0.4-0.2,0.6-0.4,0.8-0.8c0.2-0.3,0.3-0.7,0.4-1.2s0.1-1,0.1-1.6
		c0-0.7,0-1.3-0.1-1.7c0-0.4-0.2-0.8-0.3-1.1s-0.4-0.5-0.7-0.7c-0.3-0.2-0.7-0.4-1.1-0.6l-2.7-1.1c-1.6-0.7-2.7-1.5-3.3-2.6
		c-0.6-1.1-0.8-2.5-0.8-4.1c0-1,0.1-1.9,0.4-2.8s0.7-1.7,1.2-2.3c0.5-0.6,1.2-1.2,2-1.5c0.8-0.4,1.8-0.6,2.8-0.6
		c0.9,0,1.8,0.2,2.6,0.5s1.4,0.8,2,1.4s1,1.2,1.3,1.9s0.4,1.4,0.4,2.2V544.6z"/>
	<path fill="#508DAD" d="M153.4,537h5.7c1,0,1.9,0.1,2.7,0.4s1.5,0.8,2.1,1.4c0.6,0.7,1.1,1.5,1.3,2.4c0.2,0.9,0.4,2.2,0.4,3.8
		c0,1.2-0.1,2.2-0.2,3c-0.1,0.8-0.4,1.6-0.9,2.3c-0.5,0.9-1.2,1.5-2.1,2c-0.9,0.5-2,0.7-3.4,0.7h-1.9v10.3h-3.8V537z M157.2,549.5
		h1.8c0.8,0,1.4-0.1,1.8-0.3c0.4-0.2,0.7-0.5,0.9-0.9c0.2-0.4,0.3-0.8,0.4-1.4c0-0.5,0.1-1.1,0.1-1.8c0-0.6,0-1.2-0.1-1.8
		c0-0.6-0.1-1-0.3-1.4c-0.2-0.4-0.5-0.7-0.9-1s-1-0.4-1.7-0.4h-2V549.5z"/>
	<path fill="#508DAD" d="M168.4,537h6.1c4.4,0,6.7,2.6,6.7,7.7c0,1.5-0.2,2.8-0.7,3.9c-0.5,1.1-1.3,2-2.5,2.6l4.1,12h-4l-3.5-11.2
		h-2.3v11.2h-3.8V537z M172.2,548.8h2.1c0.7,0,1.2-0.1,1.6-0.3s0.7-0.5,0.9-0.8c0.2-0.3,0.4-0.8,0.4-1.3c0.1-0.5,0.1-1.1,0.1-1.8
		s0-1.3-0.1-1.8s-0.2-0.9-0.5-1.3s-0.6-0.6-1-0.8c-0.4-0.2-1-0.3-1.7-0.3h-2V548.8z"/>
	<path fill="#508DAD" d="M184.3,537h3.8v26.3h-3.8V537z"/>
	<path fill="#508DAD" d="M191.6,537h3.6l5.7,15.9h0.1V537h3.8v26.3h-3.6l-5.8-15.8h-0.1v15.8h-3.8V537z"/>
	<path fill="#508DAD" d="M208,543.2c0-1.1,0.2-2,0.6-2.8c0.4-0.8,0.9-1.5,1.5-2s1.3-0.9,2-1.2c0.8-0.3,1.5-0.4,2.3-0.4
		s1.5,0.1,2.3,0.4c0.8,0.3,1.4,0.7,2,1.2s1.1,1.2,1.5,2c0.4,0.8,0.6,1.8,0.6,2.8v1.3h-3.8v-1.3c0-0.9-0.3-1.6-0.8-2
		c-0.5-0.4-1.1-0.6-1.8-0.6s-1.3,0.2-1.8,0.6c-0.5,0.4-0.8,1.1-0.8,2v13.9c0,0.9,0.3,1.6,0.8,2c0.5,0.4,1.1,0.6,1.8,0.6
		s1.3-0.2,1.8-0.6c0.5-0.4,0.8-1.1,0.8-2v-5h-3v-3.3h6.8v8.3c0,1.1-0.2,2-0.6,2.8c-0.4,0.8-0.9,1.5-1.5,2c-0.6,0.5-1.3,0.9-2,1.2
		c-0.8,0.3-1.5,0.4-2.3,0.4s-1.5-0.1-2.3-0.4c-0.8-0.3-1.4-0.7-2-1.2c-0.6-0.5-1.1-1.2-1.5-2c-0.4-0.8-0.6-1.7-0.6-2.8V543.2z"/>
	<path fill="#508DAD" d="M230.3,559.8l6.8-12.8c0.3-0.6,0.5-1.2,0.6-1.7c0-0.5,0.1-1.1,0.1-1.8c0-0.3,0-0.7,0-1
		c0-0.4-0.1-0.7-0.2-0.9c-0.1-0.3-0.3-0.5-0.5-0.7c-0.2-0.2-0.6-0.3-1.1-0.3c-0.6,0-1,0.2-1.4,0.5s-0.5,0.8-0.5,1.4v2.1h-3.8v-2.1
		c0-0.8,0.1-1.5,0.4-2.2s0.7-1.3,1.2-1.8c0.5-0.5,1.1-0.9,1.8-1.2c0.7-0.3,1.4-0.5,2.2-0.5c1,0,1.8,0.2,2.5,0.5
		c0.7,0.4,1.3,0.8,1.7,1.5c0.5,0.6,0.8,1.3,1,2.1c0.2,0.8,0.3,1.6,0.3,2.5c0,0.6,0,1.2,0,1.6c0,0.4-0.1,0.8-0.1,1.2
		c-0.1,0.4-0.2,0.8-0.4,1.2c-0.2,0.4-0.4,0.9-0.7,1.4l-5.5,10.7h6.8v3.8h-11.2V559.8z"/>
	<path fill="#508DAD" d="M244.1,542.5c0-0.9,0.2-1.7,0.5-2.4c0.3-0.7,0.7-1.3,1.2-1.8s1.1-0.9,1.8-1.1c0.7-0.3,1.4-0.4,2.1-0.4
		s1.4,0.1,2.1,0.4c0.7,0.3,1.3,0.6,1.8,1.1c0.5,0.5,0.9,1.1,1.2,1.8c0.3,0.7,0.5,1.5,0.5,2.4v15.5c0,0.9-0.2,1.7-0.5,2.4
		c-0.3,0.7-0.7,1.3-1.2,1.8c-0.5,0.5-1.1,0.9-1.8,1.1c-0.7,0.3-1.4,0.4-2.1,0.4s-1.4-0.1-2.1-0.4c-0.7-0.3-1.3-0.6-1.8-1.1
		s-0.9-1.1-1.2-1.8c-0.3-0.7-0.5-1.5-0.5-2.4V542.5z M247.8,557.9c0,0.5,0.2,1,0.5,1.4c0.3,0.4,0.8,0.5,1.3,0.5c0.5,0,1-0.2,1.3-0.5
		c0.3-0.4,0.5-0.8,0.5-1.4v-15.5c0-0.5-0.2-1-0.5-1.4c-0.3-0.4-0.8-0.5-1.3-0.5c-0.5,0-1,0.2-1.3,0.5c-0.3,0.4-0.5,0.8-0.5,1.4
		V557.9z"/>
	<path fill="#508DAD" d="M262.3,541l-3.8,2.8v-4l3.8-2.8h3.8v26.3h-3.8V541z"/>
	<path fill="#508DAD" d="M282.8,540.6h-7.5v7.1c0.3-0.3,0.8-0.6,1.3-0.9c0.5-0.2,1.1-0.4,1.8-0.4c1.3,0,2.3,0.4,3.1,1.2
		c0.8,0.8,1.2,1.9,1.2,3.5v6.8c0,0.9-0.2,1.7-0.5,2.4c-0.3,0.7-0.7,1.3-1.2,1.8c-0.5,0.5-1.1,0.9-1.8,1.1c-0.7,0.3-1.4,0.4-2.1,0.4
		s-1.4-0.1-2.1-0.4c-0.7-0.3-1.3-0.6-1.8-1.1s-0.9-1.1-1.2-1.8c-0.3-0.7-0.5-1.5-0.5-2.4v-1.1h3.8v1c0,0.6,0.2,1.1,0.5,1.5
		c0.4,0.4,0.8,0.5,1.4,0.5s1-0.2,1.3-0.5c0.3-0.3,0.5-0.8,0.5-1.4v-6.2c0-0.5-0.2-1-0.5-1.3c-0.3-0.4-0.8-0.6-1.3-0.6
		c-0.3,0-0.6,0.1-0.8,0.2c-0.2,0.1-0.4,0.2-0.6,0.4c-0.1,0.1-0.3,0.3-0.4,0.5c-0.1,0.2-0.2,0.3-0.2,0.4H272V537h10.8V540.6z"/>
</g>
</svg>
