<?xml version="1.0" encoding="utf-8"?>
<!-- Generator: Adobe Illustrator 18.1.1, SVG Export Plug-In . SVG Version: 6.00 Build 0)  -->
<svg version="1.1" xmlns="http://www.w3.org/2000/svg" xmlns:xlink="http://www.w3.org/1999/xlink" x="0px" y="0px"
	 viewBox="0 0 155 50" enable-background="new 0 0 155 50" xml:space="preserve">
	 
	 <style>
	 .outlines {
   stroke-dasharray: 1000;
  stroke-dashoffset: 1000;
  -webkit-animation: outline 5s linear forwards;
  animation: outline 5s linear forwards;
  stroke-width:.5px;
  stroke:#3c4e63;

}

@-webkit-keyframes outline {
  to {
    stroke-dashoffset: 0;
  }
}
@keyframes outline {
  to {
    stroke-dashoffset: 0;
  }
}
.fills {
   stroke-dasharray: 60;
     stroke-dashoffset: 60;
  -webkit-animation: fill 0s linear forwards;
  animation: fill 0s linear forwards;
	stroke-linejoin:round; 
	  stroke:#3c4e63;

}


@keyframes fill {
  from {
    stroke-width: 1px;
  }
  to {
      stroke-dashoffset: 0;
  }
}


	 </style>
<g id="Layer_2" display="none">
	<rect display="inline" fill="#171B20" width="155" height="50"/>
</g>
<g id="Layer_1">
	<path fill="none" stroke="#3C4E63" stroke-miterlimit="10" d="M9.7,3.3v32.4c0,3,1.3,4.1,3.4,4.1c2.1,0,3.4-1.1,3.4-4.1V3.3h6.2v32
		c0,6.7-3.4,10.6-9.8,10.6c-6.5,0-9.8-3.8-9.8-10.6v-32H9.7z"/>
	<path fill="none" stroke="#3C4E63" stroke-miterlimit="10" d="M41.9,28.6l-2,3.8v12.9h-6.6v-42h6.6v18.3l8.6-18.3h6.6l-9.2,18.7
		l9.2,23.3h-6.8L41.9,28.6z"/>
	<path fill="#FFFFFF" d="M85.5,45.3h-6.7l-1.1-7.6h-8.1l-1.1,7.6h-6.1l6.7-42h9.7L85.5,45.3z M70.4,32h6.4l-3.2-21.2L70.4,32z"/>
	<path fill="#FFFFFF" d="M113.7,29.7v5.6c0,6.7-3.4,10.6-9.8,10.6c-6.5,0-9.8-3.8-9.8-10.6V13.4c0-6.7,3.4-10.6,9.8-10.6
		c6.5,0,9.8,3.8,9.8,10.6v4.1h-6.2V13c0-3-1.3-4.1-3.4-4.1c-2.1,0-3.4,1.1-3.4,4.1v22.7c0,3,1.3,4.1,3.4,4.1c2.1,0,3.4-1.1,3.4-4.1
		v-6H113.7z"/>
	<path fill="#FFFFFF" d="M137.7,33.2l4.5-29.8h9.2v42h-6.2V15.2l-4.6,30.1h-6.2l-4.9-29.7v29.7h-5.8v-42h9.2L137.7,33.2z"/>
	<rect x="314" y="32.3" fill="none" width="232.7" height="141.3"/>
	<text transform="matrix(1 0 0 1 314.0002 74.3332)"><tspan x="0" y="0" fill="#3C4E63" font-family="'BebasNeueBold'" font-size="60" letter-spacing="6">UK</tspan><tspan x="60.7" y="0" fill="#FFFFFF" font-family="'BebasNeueBold'" font-size="60" letter-spacing="6">ACM</tspan></text>
	
	
	<path class="fills" fill="none" stroke="#3C4E63" stroke-width="7" stroke-miterlimit="10" d="M6.4,3.3v34.3c0,0,2.5,7.3,9,5l3.1-2.2
		c0,0,0.8-0.8,0.8-2.8"/>
	<line class="fills" fill="none" stroke="#3C4E63" stroke-width="6" stroke-miterlimit="10" x1="19.9" y1="3.3" x2="19.9" y2="38.7"/>
	<line class="fills" fill="none" stroke="#3C4E63" stroke-width="7" stroke-miterlimit="10" x1="36.7" y1="3.3" x2="36.7" y2="45.8"/>
	<line class="fills" fill="none" stroke="#3C4E63" stroke-width="7" stroke-miterlimit="10" x1="36.7" y1="31" x2="44.2" y2="21"/>
	<line class="fills" fill="none" stroke="#3C4E63" stroke-width="5.5" stroke-miterlimit="10" x1="42.5" y1="23.2" x2="51.4" y2="4.4"/>
	<line class="fills" fill="none" stroke="#3C4E63" stroke-width="5.7" stroke-miterlimit="10" x1="43.2" y1="23.2" x2="51.4" y2="44.1"/>
	<line class="fills" fill="none" stroke="#3C4E63" stroke-width="2" stroke-miterlimit="10" x1="54.3" y1="44.1" x2="49.9" y2="44.5"/>
	<line class="fills" fill="none" stroke="#3C4E63" stroke-width="2" stroke-miterlimit="10" x1="54.4" y1="4.4" x2="49.9" y2="4.9"/>
</g>
</svg>
