<?xml version="1.0" encoding="utf-8"?>
<!-- Generator: Adobe Illustrator 18.1.1, SVG Export Plug-In . SVG Version: 6.00 Build 0)  -->
<svg version="1.1" id="Layer_1" xmlns="http://www.w3.org/2000/svg" xmlns:xlink="http://www.w3.org/1999/xlink" x="0px" y="0px"
	 viewBox="0 0 239 44" enable-background="new 0 0 239 44" xml:space="preserve">
<g>
	<path fill="#3E4F63" d="M6,26.2V5h5v21.2c0,6,3.8,9.2,10.6,9.2c6.7,0,10.6-3.3,10.6-9.2V5h5v21.2c0,9-5.8,14.3-15.6,14.3
		S6,35.2,6,26.2z"/>
	<path fill="#3E4F63" d="M56.7,39.7h-5.1V5h5.1v25.9L74.3,5h6.1L69,21.3l6.2,9.4c2.1,3.3,3.9,3.9,5.4,3.9c0.1,0,0.2,0,0.3,0l1.1,0
		v5.2c-4,0-7,0.6-10.8-5.5L66,25.8L56.7,39.7z"/>
	<path fill="#B5B7B8" d="M120.8,4.4h5.6l16.7,35.3h-5.7l-2.3-5.1h-10.6c-6.3,0-9.7,2-10.5,3.4l-0.9,1.6h-5.5l15-31L120.8,4.4z
		 M132.9,29.5l-7.6-14.7l-7.7,16.6c1.3-1.1,4.1-2,8.8-2H132.9z"/>
	<path fill="#B5B7B8" d="M179,13.3c-2.5-2.6-6.2-4.2-10.1-4.2c-7.7,0-13.7,5.5-13.7,13.4c0,7.5,6.5,13,13.7,13c4.5,0,8.5-2.1,11-5.4
		l3.1,4.2c-3.5,3.9-8.6,6.3-14.2,6.3c-10.5,0-18.7-8.2-18.7-18.7c0-10.2,8.7-17.9,18.7-17.9c5.2,0,10,2.1,13.4,5.5L179,13.3z"/>
	<path fill="#B5B7B8" d="M212.9,30l-11.8-14.2v23.9h-5V9.9l-4-4.9h6.6l14.2,17l14.4-17h6.6l-4,4.9v29.8h-5V15.8L212.9,30z"/>
</g>
</svg>
