<?xml version="1.0" encoding="utf-8"?>
<!-- Generator: Adobe Illustrator 18.1.1, SVG Export Plug-In . SVG Version: 6.00 Build 0)  -->
<svg version="1.1" id="Layer_1" xmlns="http://www.w3.org/2000/svg" xmlns:xlink="http://www.w3.org/1999/xlink" x="0px" y="0px"
	 viewBox="0 0 242 36" enable-background="new 0 0 242 36" xml:space="preserve">
	 
	 <style>
	 	 .outlines {
   stroke-dasharray: 1000;
  stroke-dashoffset: 1000;
  -webkit-animation: outline 20s linear forwards;
  animation: outline 20s linear forwards;
  
  stroke-width:.5px;
  stroke:#3c4e63;

}

@-webkit-keyframes outline {
  to {
    stroke-dashoffset: 0;
  }
}
@keyframes outline {
  to {
    stroke-dashoffset: 0;
  }
}
	 </style>
<path fill="#fff" d="M120.6,29.7c-0.8,0-1.5-0.7-1.5-1.5c0-0.8,0.7-1.5,1.5-1.5c0.8,0,1.5,0.7,1.5,1.5
	C122.1,29,121.4,29.7,120.6,29.7z M120.6,26.5c-1,0-1.7,0.8-1.7,1.7c0,1,0.8,1.7,1.7,1.7c0.9,0,1.7-0.8,1.7-1.7
	C122.3,27.2,121.5,26.5,120.6,26.5z"/>
<path fill="#fff" d="M119.5,11.3V8.1h-0.3V7.6h0.3c0.2-1.4,0.8-1.5,0.8-1.5l0-2.6h-11.4l0,1.8c2.5,0.1,2.5,0.4,2.5,2.5v11.2V22
	c0,4.9-1.3,6.9-3.8,6.9s-3.8-2-3.8-6.9v-3.1V7.7c0-2,0.2-2.3,2.7-2.4l0-1.8H92.5v1.9c2.5,0.1,2.6,0.3,2.6,2.3v11.2V21
	c0,6.6,1.8,10.2,12.4,10.2c4.2,0,7.2-0.6,9.2-1.7v-3.4h-0.7l0.2-0.9h0.6v-0.5h0.5v-0.6l0.5-0.2v-4.5c0,0-0.4-0.1-0.6-0.2
	c-0.1-0.1-0.1-0.1-0.2-0.2c-0.2-0.5,0.1-1.3,0.1-1.3h1.2v-3.5l-0.3-0.3v-1.3h0.7l0-0.9l0.2-0.2L119.5,11.3z"/>
<path fill="#fff" d="M149,29.4h-1.5c-1.2,0-2.3-1.6-3.1-2.9c-0.4-0.6-2.6-4.1-4.8-7.6c-2.3-3.7-4.6-7.3-4.6-7.3s3.8-5.1,4.6-5.7
	c0.5-0.4,1.4-0.6,2.3-0.6c0.9,0,1.2,0,1.2,0V3.5h-7.4v1.8h0.6c0.9,0,0.9,0.1,0.5,0.6c-0.4,0.4-7.9,9.3-7.9,9.3v-9
	c0-1,0.8-0.8,2.7-0.8V3.5l-10.7,0l0,2.6c0,0,0.6,0.1,0.8,1.5l0.3,0v0.5h-0.3l0,3.3l0.5,0.1l0.2,0.2v0.9h0.7v1.3l-0.3,0.3v3.4h1.2
	c0,0,0.3,0.8,0.1,1.3c0,0.1-0.1,0.1-0.1,0.2c-0.2,0.1-0.6,0.2-0.6,0.2v4.5l0.4,0.2v0.6h0.5v0.5h0.6l0.1,0.9h-0.8v4.4h7.3
	c0,0-0.1-1.5,0-1.5h-1c-0.8,0-1.7-0.2-1.7-1.1v-9v-0.2l0.9-1l0.8,1.2l7.2,11.6H149C149,30.5,148.9,29.4,149,29.4z"/>
<path  fill="#fff" d="M150.3,29.3c0-0.7,0.6-1.3,1.3-1.3c0.7,0,1.3,0.5,1.3,1.3c0,0.7-0.6,1.3-1.3,1.3
	C150.9,30.5,150.3,30,150.3,29.3z M151.6,30.3c0.6,0,1-0.5,1-1.1c0-0.6-0.5-1.1-1-1.1c-0.6,0-1,0.5-1,1.1
	C150.5,29.9,151,30.3,151.6,30.3z M151.3,30h-0.2v-1.5h0.6c0.3,0,0.5,0.1,0.5,0.4c0,0.3-0.2,0.4-0.4,0.4l0.4,0.6H152l-0.4-0.6h-0.3
	C151.3,29.4,151.3,30,151.3,30z M151.6,29.2c0.2,0,0.4,0,0.4-0.2c0-0.2-0.2-0.2-0.3-0.2h-0.3v0.5H151.6z"/>
<line class="outlines" fill="none" stroke="#1d2937" stroke-width="4" stroke-miterlimit="10" x1="70.3" y1="18.5" x2="3" y2="18.5"/>
<line class="outlines" fill="none" stroke="#1d2937" stroke-width="4" stroke-miterlimit="10" x1="171.7" y1="17.3" x2="239" y2="17.3"/>
</svg>
