<?xml version="1.0" standalone="no"?>
<!DOCTYPE svg PUBLIC "-//W3C//DTD SVG 1.1//EN" "http://www.w3.org/Graphics/SVG/1.1/DTD/svg11.dtd" >
<svg xmlns="http://www.w3.org/2000/svg" xmlns:xlink="http://www.w3.org/1999/xlink" version="1.1">
<metadata></metadata>
<defs>
<font id="ancillaryregular" horiz-adv-x="1585" >
<font-face units-per-em="2048" ascent="1638" descent="-410" />
<missing-glyph horiz-adv-x="563" />
<glyph unicode="&#xfb01;" horiz-adv-x="1208" d="M63 891l31 133h90v82q0 111 15 194t39.5 135.5t65 84.5t82 45.5t101 14t112 -5.5t123.5 -17q11 -2 17 -3l27 -143q-162 31 -257.5 29t-134 -74t-38.5 -260v-82h311l-31 -133h-280q0 -12 1 -270.5t1 -620.5h-154v891h-121zM881 1300q0 42 30.5 72.5t71.5 30.5 q43 0 72.5 -30t29.5 -73q0 -42 -30 -72t-72 -30q-41 0 -71.5 30.5t-30.5 71.5zM907 0v1014l152 30v-1044h-152z" />
<glyph horiz-adv-x="0" />
<glyph horiz-adv-x="682" />
<glyph unicode=" "  horiz-adv-x="563" />
<glyph unicode="&#x09;" horiz-adv-x="563" />
<glyph unicode="&#xa0;" horiz-adv-x="563" />
<glyph unicode="!" horiz-adv-x="522" d="M154 88q0 44 32 75.5t76 31.5t75.5 -31.5t31.5 -75.5t-31.5 -76t-75.5 -32t-76 32t-32 76zM166 1597h192l-30 -1228h-131z" />
<glyph unicode="&#x22;" horiz-adv-x="538" d="M61 1260l78 419h195l-139 -419h-134zM328 1260l98 419h195l-160 -419h-133z" />
<glyph unicode="#" horiz-adv-x="1372" d="M41 358l35 154h260l65 297h-266l35 156h266l78 356h160l-78 -356h278l78 356h156l-78 -356h301l-35 -156h-301l-65 -297h307l-35 -154h-305l-80 -358h-155l79 358h-278l-80 -358h-160l80 358h-262zM496 512h278l66 297h-279z" />
<glyph unicode="$" horiz-adv-x="1177" d="M92 1108q0 92 23.5 165.5t62 121.5t92.5 81t111 49t123 21v127h153v-125q199 -14 379 -94l37 -190q-228 111 -416 127v-572l82 -24q81 -26 141 -58.5t108 -78t72.5 -109t24.5 -143.5q0 -95 -24.5 -170t-65 -123t-97.5 -81t-115.5 -48t-125.5 -19v-129h-153v131 q-194 18 -363 92l-37 191q222 -107 400 -125v573l-66 21q-82 28 -141.5 60t-107.5 78t-72.5 108.5t-24.5 142.5zM246 1108q0 -93 67 -148t191 -96v525q-122 -20 -190 -93t-68 -188zM657 123q130 17 202.5 91t72.5 192q0 51 -20.5 90.5t-62 68.5t-84.5 48t-108 40v-530z" />
<glyph unicode="%" horiz-adv-x="1415" d="M92 1253q0 128 90 218t217 90t217.5 -90.5t90.5 -217.5t-90 -217t-218 -90q-127 0 -217 90t-90 217zM121 0l975 1536h178l-973 -1536h-180zM246 1253q0 -64 45 -108.5t108 -44.5q65 0 109.5 44.5t44.5 108.5q0 63 -45 108.5t-109 45.5q-63 0 -108 -45.5t-45 -108.5z M709 283q0 127 89.5 217t217.5 90t217.5 -90t89.5 -217q0 -128 -90 -218t-217 -90t-217 90t-90 218zM862 283q0 -64 45.5 -109t108.5 -45q64 0 108.5 44.5t44.5 109.5q0 63 -44.5 108t-108.5 45q-63 0 -108.5 -45t-45.5 -108z" />
<glyph unicode="&#x26;" horiz-adv-x="1196" d="M61 356q0 29 6.5 58.5t15.5 54t27.5 52.5t32.5 48t41 47.5t43 43t48.5 42.5t46.5 38t49 38t45 35q-1 2 -20 30t-28.5 43t-29 47t-31.5 56.5t-26.5 56t-23 61.5t-11.5 58q-12 101 35 190.5t130 141t177 51.5q165 0 251.5 -102t86.5 -266q-2 -32 -12 -64t-23 -58.5 t-36.5 -57t-41 -51t-48.5 -49.5t-47.5 -43.5t-49.5 -42t-43 -36.5l282 -393q24 32 61.5 128t59.5 173l133 -78q-27 -94 -74.5 -208t-80.5 -160l159 -240h-186l-76 117q-71 -64 -176 -100.5t-215 -36.5q-129 0 -228.5 39.5t-161 126t-61.5 210.5zM215 356q0 -25 3 -46t20 -54 t46.5 -56.5t89.5 -43t142 -23.5q65 -3 145 26t146 89l-313 444q-11 -9 -44.5 -35t-49 -38t-45.5 -37.5t-45 -42t-36.5 -41.5t-32 -46t-18.5 -46t-8 -50zM399 1167q2 -19 12.5 -45t30.5 -60t33 -54.5t38.5 -57.5t27.5 -41q1 1 25 19.5t35.5 27.5t37.5 31t41 37t35.5 38.5 t32 42t20 40.5t8.5 41q0 209 -188 209q-91 0 -145 -74t-44 -154z" />
<glyph unicode="'" horiz-adv-x="251" d="M61 1260l78 419h195l-139 -419h-134z" />
<glyph unicode="(" horiz-adv-x="518" d="M63 696.5q-2 280.5 71.5 557t217.5 487.5h172q-127 -204 -192 -482.5t-62 -562t71.5 -562t195.5 -482.5h-175q-144 211 -220.5 487.5t-78.5 557z" />
<glyph unicode=")" horiz-adv-x="518" d="M-18 -348q127 204 195.5 482.5t71 562t-62.5 562t-192 482.5h172q144 -211 217.5 -487.5t71.5 -557t-78.5 -557t-220.5 -487.5h-174z" />
<glyph unicode="*" horiz-adv-x="968" d="M119 1034l213 123l-213 123l76 133l213 -123v246h153v-246l213 123l76 -133l-213 -123l213 -123l-76 -133l-213 123v-246h-153v246l-213 -123z" />
<glyph unicode="+" horiz-adv-x="1263" d="M102 535v153h453v453h154v-453h452v-153h-452v-453h-154v453h-453z" />
<glyph unicode="," horiz-adv-x="419" d="M0 -201l164 420h194l-225 -420h-133z" />
<glyph unicode="-" horiz-adv-x="901" d="M123 535v153h655v-153h-655z" />
<glyph unicode="." horiz-adv-x="428" d="M106 88q0 44 32.5 75.5t76.5 31.5t75.5 -31.5t31.5 -75.5t-31.5 -76t-75.5 -32t-76.5 32t-32.5 76z" />
<glyph unicode="/" horiz-adv-x="784" d="M31 -117l596 1755h161l-593 -1755h-164z" />
<glyph unicode="0" horiz-adv-x="1171" d="M74 653q0 -320 134.5 -496.5t371.5 -176.5q240 0 379 177t139 496q0 321 -139 498.5t-379 177.5q-237 0 -371.5 -177.5t-134.5 -498.5zM227 653q0 146 37 261.5t118.5 188.5t197.5 73q90 0 161 -41.5t114.5 -114t66 -166t22.5 -201.5q0 -107 -22.5 -200t-66 -165 t-114.5 -113.5t-161 -41.5q-87 0 -156 41.5t-111 113.5t-64 165t-22 200z" />
<glyph unicode="1" horiz-adv-x="501" d="M82 967l47 221l250 149v-1337h-152v1059z" />
<glyph unicode="2" horiz-adv-x="1095" d="M92 0h879l30 154h-704q16 60 48 114.5t67 91.5t84.5 74.5t84 58t83 47.5t65.5 38q73 45 119 80t84 77.5t55 90t17 106.5q0 107 -36.5 186.5t-100 124t-140 65.5t-166.5 21q-96 0 -222.5 -33.5t-176.5 -70.5l-35 -185q194 96 352.5 121t254 -32.5t95.5 -194.5 q0 -50 -41 -98t-108.5 -91.5t-140.5 -86t-150.5 -100t-124.5 -116.5q-83 -103 -127.5 -204.5t-44.5 -237.5z" />
<glyph unicode="3" horiz-adv-x="1013" d="M92 221q74 -48 187 -69t218.5 -10.5t181 66.5t75.5 150q0 62 -41 113t-100 79.5t-126 39.5v131q67 11 126 39t100 79t41 113q0 76 -49.5 128t-127 72t-166 20.5t-174.5 -22t-145 -60.5l39 186q82 31 171 45t176 10.5t165.5 -29t138 -69.5t94.5 -116.5t35 -164.5 q0 -62 -9.5 -108t-32 -80.5t-44.5 -56.5t-61 -52q39 -30 61 -52t44.5 -56.5t32 -80.5t9.5 -108q0 -110 -49.5 -191t-131 -123t-183.5 -57.5t-209.5 -2t-206.5 50.5z" />
<glyph unicode="4" horiz-adv-x="1050" d="M72 276l612 1061l154 31v-938h131l-31 -154h-100v-276h-154v276h-612zM334 430h350v602z" />
<glyph unicode="5" horiz-adv-x="1040" d="M113 633l43 688h731l31 -154h-625l-25 -350q670 77 670 -434q0 -108 -44.5 -190.5t-120.5 -130t-176 -70t-213 -17t-230 36.5l-39 174q123 -43 245.5 -52t219 15.5t154 90t50.5 163.5q-4 61 -11 85q-60 200 -455 172q-93 -7 -205 -27z" />
<glyph unicode="6" horiz-adv-x="1042" d="M74 535q0 88 4.5 162t16.5 150t31.5 137t51 118t73 97.5t99.5 71.5t129 45t163 12t200 -23l35 -152q-190 51 -320.5 27.5t-201.5 -98.5t-87 -195q68 31 145 45t156 9.5t150.5 -37.5t127.5 -89t89 -151.5t33 -219.5q0 -128 -53 -232.5t-157 -168t-241 -63.5 q-92 0 -166.5 28t-126 77.5t-86 119.5t-50 152t-15.5 178zM231 444q0 -41 7 -80t27 -82t51 -75t83 -53t119 -21q51 0 102 18.5t95.5 55t72 98t27.5 139.5q0 336 -297 336q-57 0 -102 -12.5t-74.5 -32t-51 -50t-33 -58t-17.5 -64.5t-7.5 -62t-1.5 -57z" />
<glyph unicode="7" horiz-adv-x="1050" d="M92 1167l31 154h883l-465 -1321h-166l413 1167h-696z" />
<glyph unicode="8" horiz-adv-x="1105" d="M84 424q0 96 45 189t121 157q-76 89 -76 199q0 161 113 266.5t266 105.5q98 0 184.5 -46t140.5 -132.5t54 -193.5q0 -110 -78 -201q77 -62 122.5 -155t45.5 -189q0 -119 -60 -220.5t-168.5 -162.5t-240.5 -61q-133 0 -241 61t-168 162.5t-60 220.5zM238 424 q0 -122 84.5 -206.5t230.5 -84.5t230.5 84.5t84.5 206.5q0 114 -80 177t-235 63t-235 -63t-80 -177zM328 977q0 -61 56.5 -110.5t168.5 -49.5q115 0 170 49.5t55 110.5q0 102 -68 156.5t-157 54.5q-40 0 -78.5 -12.5t-72 -37.5t-54 -66.5t-20.5 -94.5z" />
<glyph unicode="9" horiz-adv-x="1060" d="M92 862q0 128 53 233t157 168.5t241 63.5q92 0 166.5 -28t126 -77.5t86 -119.5t50 -152t15.5 -178q0 -1033 -780 -719l-37 162q106 -50 194.5 -71.5t150 -19t111 26t79.5 55.5t52.5 79.5t33 87.5t18.5 88q-75 -62 -160 -86t-163.5 -11.5t-151 55.5t-125.5 108t-85 152.5 t-32 182.5zM246 862q0 -141 81.5 -238.5t215.5 -97.5q150 0 220.5 93.5t70.5 242.5q0 138 -81 225t-210 87q-142 0 -219.5 -85.5t-77.5 -226.5z" />
<glyph unicode=":" horiz-adv-x="428" d="M106 127q0 44 32 75t77 31q44 0 75.5 -31t31.5 -75t-31.5 -76.5t-75.5 -32.5t-76.5 32.5t-32.5 76.5zM106 829q0 44 32.5 75.5t76.5 31.5t75.5 -31.5t31.5 -75.5t-31.5 -76t-75.5 -32t-76.5 32t-32.5 76z" />
<glyph unicode=";" horiz-adv-x="440" d="M-20 -201l163 420h195l-225 -420h-133zM127 829q0 44 32.5 75.5t76.5 31.5t75 -31.5t31 -75.5t-31 -76t-75 -32t-76.5 32t-32.5 76z" />
<glyph unicode="&#x3c;" horiz-adv-x="1216" d="M61 657l1033 537v-178l-703 -359l703 -358v-178z" />
<glyph unicode="=" horiz-adv-x="1146" d="M102 348v154h942v-154h-942zM102 676v153h942v-153h-942z" />
<glyph unicode="&#x3e;" horiz-adv-x="1216" d="M123 121v178l702 358l-702 359v178l1032 -537z" />
<glyph unicode="?" horiz-adv-x="921" d="M-20 1280l30 174q71 41 189.5 76t208.5 35q193 0 322.5 -131.5t129.5 -348.5q0 -81 -24.5 -149.5t-63.5 -117t-86.5 -91.5t-95 -82t-86.5 -78t-63.5 -89.5t-24.5 -108.5h-152q-4 66 18 126.5t61 108t87 92.5t96.5 89t89 88t66 99t25.5 113q0 91 -30 161t-91 111.5 t-147 51t-204 -22.5t-255 -106zM231 88q0 44 32.5 75.5t76.5 31.5t75 -31.5t31 -75.5t-31 -76t-75 -32t-76.5 32t-32.5 76z" />
<glyph unicode="@" horiz-adv-x="1986" d="M123 512q0 179 68 340t184 277.5t277.5 184.5t340.5 68t340.5 -68.5t277.5 -184.5t184.5 -277t68.5 -340q0 -121 -27 -215t-72.5 -149t-104.5 -83.5t-122.5 -25t-127.5 34t-118 86.5q-72 -52 -166 -82.5t-145 -30.5q-121 0 -222.5 64.5t-158.5 171t-57 229.5 q0 122 57 228.5t158.5 171.5t222.5 65q51 0 119.5 -17.5t122.5 -48.5v37l151 -57v-522q0 -72 63 -117q63 -46 134 -25q89 25 123 147q16 59 16 138q0 146 -56.5 278.5t-152.5 228.5t-229 153t-279 57q-145 0 -278 -57t-229 -153t-153 -229t-57 -278t57 -278t153 -229 t229 -153t278 -57q187 0 344 88l-43 -192q-169 -49 -301 -49q-180 0 -341 68t-277 184t-184 277t-68 341zM696 512q0 -124 81.5 -209.5t203.5 -85.5q65 0 132 23.5t110 74.5v398q-85 62 -131.5 78t-110.5 16q-122 0 -203.5 -86t-81.5 -209z" />
<glyph unicode="A" horiz-adv-x="1552" d="M27 0l690 1536h119l690 -1536h-166l-180 401h-807l-180 -401h-166zM442 555h670l-334 743z" />
<glyph unicode="B" horiz-adv-x="1292" d="M123 0v1536h579q102 0 185 -23.5t147 -71.5t99.5 -128t35.5 -187q0 -50 -6 -91.5t-21 -87t-46.5 -83.5t-77.5 -65q104 -52 148 -148.5t44 -240.5q0 -84 -28.5 -156t-87.5 -130t-159.5 -91t-234.5 -33h-290h-287zM287 154h413q43 0 88.5 7t94.5 26t87 46.5t62.5 73.5 t24.5 103q0 163 -73.5 233t-262.5 70h-434v-559zM287 866h413q80 0 140 18.5t93 45t52.5 64t25 68t5.5 64.5q0 65 -22 112.5t-54 74t-80.5 42.5t-88 21t-89.5 6h-395v-516z" />
<glyph unicode="C" horiz-adv-x="1239" d="M82 764q0 171 55 318t146.5 247t210.5 157.5t247 61.5q10 0 19 1q155 0 330 -46l36 -186q-166 70 -308 70q-30 1 -58 -3q-164 -18 -280.5 -108t-180 -225.5t-63.5 -286.5t63.5 -286.5t180 -225.5t280.5 -108q28 -3 58 -2q141 0 308 69l-36 -186q-175 -45 -330 -45h-19 q-128 4 -247 61.5t-210.5 157.5t-146.5 247t-55 318z" />
<glyph unicode="D" horiz-adv-x="1382" d="M123 0v1536h504q154 0 273 -43t193.5 -114t122 -172.5t66 -208t18.5 -230.5q0 -356 -178 -562t-481 -206h-518zM276 174h365q236 0 371 154t135 440q0 107 -16 196.5t-53.5 168t-95.5 133t-147.5 85.5t-203.5 31h-355v-1208z" />
<glyph unicode="E" horiz-adv-x="1245" d="M123 0v1536h989l31 -154h-867v-536h748v-154h-748v-538h867l-31 -154h-989z" />
<glyph unicode="F" horiz-adv-x="1214" d="M123 0v1536h989l31 -154h-867v-536h728v-154h-728v-692h-153z" />
<glyph unicode="G" horiz-adv-x="1249" d="M82 760q0 160 32.5 289.5t89 217t135 149t169 92t192.5 39.5q44 4 88 4q58 0 116 -7q102 -12 206 -41l37 -186q-182 69 -333 79q-27 1 -53 1q-118 0 -205 -36q-105 -44 -178 -131.5t-107.5 -206t-34.5 -263.5q0 -140 37.5 -253.5t100 -184.5t142 -116.5t164.5 -57.5 q42 -6 83.5 -6t82.5 6q81 12 147 49v489l154 -31v-573q-49 -45 -170 -71.5t-201 -26.5q-147 0 -267 48t-197.5 125.5t-130.5 180.5t-76 208.5t-23 213.5z" />
<glyph unicode="H" horiz-adv-x="1351" d="M123 0v1536h153v-690h799v690h154v-1536h-154v692h-799v-692h-153z" />
<glyph unicode="I" horiz-adv-x="460" d="M154 0v1536h153v-1536h-153z" />
<glyph unicode="J" horiz-adv-x="761" d="M92 172q55 -22 110 -26q10 -1 21 -1q43 0 85 15q51 18 90 59t63 116t24 177v1024h154v-1024q0 -282 -136 -426q-95 -100 -243 -100q-63 0 -135 18z" />
<glyph unicode="K" horiz-adv-x="1284" d="M123 0v1536h153v-686l666 684h215l-563 -578l598 -956h-182l-527 844l-207 -213v-631h-153z" />
<glyph unicode="L" horiz-adv-x="1181" d="M123 0v1536h153v-1382h830l-21 -154h-962z" />
<glyph unicode="M" horiz-adv-x="1630" d="M123 0v1536h72l620 -1030l621 1030h71v-1536h-153v1098l-539 -893l-539 893v-1098h-153z" />
<glyph unicode="N" horiz-adv-x="1443" d="M123 0v1536h92l952 -1212v1212h154v-1536h-92l-953 1212v-1212h-153z" />
<glyph unicode="O" d="M82 768q0 217 94.5 401t258.5 292t358 108t357.5 -108t258 -292t94.5 -401t-94.5 -401t-258 -292t-357.5 -108t-358 108t-258.5 292t-94.5 401zM236 768q0 -129 43.5 -248t118 -206.5t178 -140t217.5 -52.5t217.5 52.5t178 140t118 206.5t43.5 248t-43.5 248t-118 206.5 t-178 140t-217.5 52.5t-217.5 -52.5t-178 -140t-118 -206.5t-43.5 -248z" />
<glyph unicode="P" horiz-adv-x="1165" d="M123 0v1536h452q123 0 219 -29t155 -74.5t97.5 -109t53 -126.5t14.5 -132q0 -107 -42 -200.5t-117.5 -162.5t-189 -109t-249.5 -40h-229v-553h-164zM287 717h243q63 0 123 11.5t116.5 38.5t98.5 66.5t67.5 99t25.5 132.5q0 151 -95.5 234t-290.5 83h-288v-665z" />
<glyph unicode="Q" d="M82 768q0 217 94.5 401t258.5 292t358 108t357.5 -108t258 -292t94.5 -401q0 -224 -100 -411.5t-268 -290.5q52 -72 108 -90q25 -7 60 -7q41 0 96 11l-62 -152q-39 -9 -77 -9q-56 0 -110 19q-90 32 -196 150q-89 -21 -161 -21q-194 0 -358 108t-258.5 292t-94.5 401z M236 768q0 -129 43.5 -248t118 -206.5t178 -140t217.5 -52.5t217.5 52.5t178 140t118 206.5t43.5 248t-43.5 248t-118 206.5t-178 140t-217.5 52.5t-217.5 -52.5t-178 -140t-118 -206.5t-43.5 -248z" />
<glyph unicode="R" horiz-adv-x="1277" d="M123 0v1536h450q134 0 240 -27t173 -71.5t111 -105.5t61.5 -124t17.5 -133q0 -63 -18 -127t-54.5 -125.5t-99 -114.5t-142.5 -85l324 -623h-174l-301 582q-55 -9 -117 -9h-318v-573h-153zM276 727h318q207 0 317.5 98.5t110.5 249.5q0 158 -120.5 232.5t-328.5 74.5h-297 v-655z" />
<glyph unicode="S" horiz-adv-x="1177" d="M92 1108q0 102 28.5 180.5t74 127t110 79.5t128 42.5t136.5 12.5h14q235 0 453 -96l37 -190q-178 86 -334 116q-84 16 -153 15q-60 1 -110 -11q-107 -26 -168.5 -97t-61.5 -179q0 -43 14.5 -78.5t45 -62t62.5 -46.5t83.5 -38t90.5 -30t100 -29t97 -29q81 -26 141 -58.5 t108 -78t72.5 -109t24.5 -143.5q0 -102 -28.5 -181t-74 -127t-109.5 -79t-128.5 -43t-136.5 -13h-14q-235 0 -453 96l-37 191q178 -86 334 -116q84 -16 153 -15q61 -1 111 11q108 26 169 97t61 179q0 50 -22.5 90t-54.5 66t-88 50t-100.5 37.5t-116 34.5t-112.5 35 q-82 28 -141.5 60t-107.5 78t-72.5 108.5t-24.5 142.5z" />
<glyph unicode="T" horiz-adv-x="1402" d="M61 1382v154h1280v-154h-563v-1382h-153v1382h-564z" />
<glyph unicode="U" horiz-adv-x="1392" d="M123 623v913h153v-913q0 -74 17.5 -144.5t53 -132.5t84.5 -109t117 -74q66 -26 140 -26h6q122 1 220.5 72t150 180.5t51.5 231.5v915h154v-915q0 -170 -69.5 -314.5t-202.5 -233.5t-304 -89q-127 0 -235.5 52t-181 140t-113.5 204t-41 243z" />
<glyph unicode="V" horiz-adv-x="1525" d="M27 1536h168l571 -1262l563 1262h170l-690 -1536h-92z" />
<glyph unicode="W" horiz-adv-x="1736" d="M27 1536h159l361 -1161l321 1044l322 -1044l360 1161h160l-477 -1536h-86l-279 903l-278 -903h-86z" />
<glyph unicode="X" horiz-adv-x="1359" d="M47 0l539 768l-539 768h186l447 -635l446 635h187l-539 -768l539 -768h-189l-444 633l-444 -633h-189z" />
<glyph unicode="Y" horiz-adv-x="1320" d="M27 1536h180l455 -797l454 797h178l-557 -971v-565h-153v565z" />
<glyph unicode="Z" horiz-adv-x="1320" d="M102 1382l31 154h1081l-839 -1382h844l-31 -154h-1082l832 1382h-836z" />
<glyph unicode="[" horiz-adv-x="624" d="M82 -348v2089h635l31 -154h-512v-1782h512l-31 -153h-635z" />
<glyph unicode="\" horiz-adv-x="784" d="M-4 1638h162l596 -1755h-164z" />
<glyph unicode="]" horiz-adv-x="624" d="M-123 -195h512v1782h-512l31 154h635v-2089h-635z" />
<glyph unicode="^" horiz-adv-x="1028" d="M123 1147l391 389l391 -389l-108 -109l-283 279l-283 -279z" />
<glyph unicode="_" horiz-adv-x="1290" d="M0 0h1290v-154h-1290v154z" />
<glyph unicode="`" horiz-adv-x="645" d="M102 1804h215l226 -317h-154z" />
<glyph unicode="a" horiz-adv-x="1017" d="M82 328q0 79 27.5 140.5t76 98t110.5 58.5t134 26q28 2 56 2l88 -4q72 -7 143 -26q1 15 1 28q0 73 -26 123q-32 60 -89 84q-56 24 -131 24h-3q-77 0 -160.5 -22t-171.5 -61l35 200q86 28 174 41q52 8 105 8q37 0 74 -4q91 -9 163.5 -40.5t122.5 -101t59 -169.5 q3 -30 3 -69q0 -46 -4 -104q-7 -108 -13 -184q-1 -18 -1 -37q-1 -57 13 -115q18 -76 68 -111l-49 -142q-82 19 -123 78q-132 -61 -246 -75q-40 -5 -74 -5q-67 -1 -118 17q-78 26 -134.5 79.5t-83 121.5t-26.5 141zM236 328q0 -90 56 -140q56 -49 134 -54q15 -1 30 -1 q62 0 128 17q80 21 131 61q-11 70 -11 157q0 43 3 91q-67 21 -145 28q-36 3 -72 3q-41 0 -81 -4q-75 -8 -124 -48.5t-49 -109.5z" />
<glyph unicode="b" horiz-adv-x="1079" d="M102 0v1618l154 51v-684q93 45 196 56q29 3 57 3q73 0 143 -20q96 -28 173.5 -88.5t124.5 -164.5t47 -236q0 -130 -29.5 -238.5t-90.5 -186.5q-61 -76 -147 -112q-56 -23 -126 -23q-38 1 -82 7q-122 20 -266 100v-82h-154zM256 256q116 -82 214 -110q57 -17 105 -17 q33 1 61 9q68 20 116 75t70 134.5t22 174.5q0 93 -31 165.5t-81 114.5t-114 62q-55 18 -113 17h-17q-66 -3 -126.5 -26t-105.5 -64v-535z" />
<glyph unicode="c" horiz-adv-x="927" d="M74 512q0 97 27 184.5t74.5 156t116.5 115.5q68 48 148 68q50 13 106 12q32 0 68 -4q96 -12 193 -59l35 -170q-60 39 -129 59q-66 19 -130 18h-7q-68 -1 -131.5 -26t-111.5 -69.5t-77 -118t-29 -166.5t29 -166.5t77 -118t111.5 -69.5t131.5 -26h7q65 0 130 18 q69 20 129 59l-35 -170q-97 -47 -193 -59q-35 -4 -68 -4q-56 0 -106 12q-80 20 -148.5 67.5t-116 116t-74.5 156t-27 184.5z" />
<glyph unicode="d" horiz-adv-x="1079" d="M82 535q0 132 47 236t125 164q78 61 174 89q70 21 142 20q28 0 57 -3q103 -11 196 -56v633l154 51v-1669h-154v82q-143 -80 -265 -100q-43 -7 -83 -7q-71 1 -126 23q-86 36 -147 113t-90.5 185.5t-29.5 238.5zM236 522q0 -95 22 -174.5t70 -134.5q46 -55 114 -75 q28 -9 62 -9q46 1 104 17q98 28 215 110v535q-45 41 -106 64t-126 26h-17q-57 1 -112 -17q-64 -20 -114 -62t-81 -114.5t-31 -165.5z" />
<glyph unicode="e" horiz-adv-x="1126" d="M82 520q0 108 32.5 203t94 168t159.5 115q91 39 202 38h16q105 -2 187.5 -34.5t132 -85t80.5 -116.5q32 -64 42 -136q8 -55 7 -107v-30q-3 -65 -17 -123h-772q6 -41 29 -83t62 -82.5t99 -68.5q62 -28 136 -41q37 -6 79 -6q45 1 96 7q101 14 214 55l-25 -164 q-156 -47 -283 -47h-35q-140 8 -240.5 54t-166.5 125.5t-97.5 170.5t-31.5 188zM233 567h656v19q0 65 -18 117q-21 60 -54.5 95t-78.5 58t-86 31t-81 8q-149 0 -241.5 -88t-96.5 -240z" />
<glyph unicode="f" horiz-adv-x="765" d="M63 891l31 133h90v123q0 113 16 198t40.5 139.5t67.5 86.5t84 46q38 13 93 13h13q63 -2 114 -10t127 -25l27 -143q-152 29 -246 29h-12q-95 -2 -133.5 -74t-38.5 -260v-123h311l-31 -133h-280q0 -12 1 -270.5t1 -620.5h-154v891h-121z" />
<glyph unicode="g" horiz-adv-x="1079" d="M82 535q0 111 33.5 202t89.5 151.5t130.5 100.5t156.5 53q50 8 101 8q33 0 67 -4q85 -8 163 -40v38l154 -30v-1014q-10 -124 -41 -216t-89 -158t-142 -98q-78 -30 -185 -30h-17q-118 3 -267 43l-27 178q59 -21 113.5 -35.5t117.5 -23.5q44 -5 82 -5q18 0 35 1 q53 4 103.5 25t85.5 59.5t56 104.5t21 155v72q-164 -94 -297 -94q-46 0 -88 12q-165 43 -260.5 195t-95.5 350zM236 522q0 -68 20 -132.5t56 -117.5t90 -86.5t117 -41.5q15 -2 30 -2q52 0 113 21q79 28 161 95v553q-45 35 -106 53.5t-126 19.5q-4 1 -8 1q-61 0 -121 -21 q-64 -22 -114 -63t-81 -113.5t-31 -165.5z" />
<glyph unicode="h" horiz-adv-x="1042" d="M102 0v1597l154 72v-756q142 99 269 129q58 14 110 13q61 0 111 -19q94 -36 149 -146.5t55 -285.5v-604h-153v604q0 97 -20.5 163.5t-56.5 97.5q-34 31 -80 41q-18 4 -37 3q-29 -1 -60 -9q-51 -14 -102.5 -42.5t-99 -69t-85.5 -86.5v-702h-154z" />
<glyph unicode="i" horiz-adv-x="450" d="M123 1300q0 42 30.5 72.5t71.5 30.5q43 0 73 -30t30 -73q0 -42 -30 -72t-73 -30q-41 0 -71.5 30.5t-30.5 71.5zM150 0v1004l151 51v-1055h-151z" />
<glyph unicode="j" horiz-adv-x="518" d="M-27 -338q33 -5 61 -5q37 0 66 9q49 14 74.5 56.5t35 97t9.5 139.5v1055l152 51v-1167q0 -5 0.5 -14.5t-1 -38.5t-6 -56.5t-16 -65t-28 -68.5t-45.5 -62t-65.5 -51t-89.5 -30q-34 -6 -71 -6q-23 0 -47 2zM190 1300q0 42 30.5 72.5t72.5 30.5q43 0 72.5 -30t29.5 -73 q0 -42 -30 -72t-72 -30q-41 0 -72 30.5t-31 71.5z" />
<glyph unicode="k" horiz-adv-x="1009" d="M123 0v1567l151 61v-1044l500 463l166 -56l-379 -352l408 -639h-183l-337 535l-175 -160v-375h-151z" />
<glyph unicode="l" horiz-adv-x="399" d="M123 0v1618l153 51v-1669h-153z" />
<glyph unicode="m" horiz-adv-x="1454" d="M102 0v1014l154 30v-126q72 86 172 116q49 14 95 15q49 0 97 -16q92 -31 146 -109q69 56 142 86q72 30 138 34q9 0 17 1q57 0 107 -20q58 -23 100 -69t67 -119.5t25 -166.5v-670h-154v664q0 70 -18 119.5t-48 72t-70 26.5q-9 1 -19 2q-32 0 -66 -12q-44 -15 -90 -45.5 t-88 -74.5v-752h-154v670q0 84 -25 139q-26 55 -68 72q-26 10 -54 10q-19 0 -39 -4q-51 -11 -107.5 -55.5t-105.5 -114.5v-717h-154z" />
<glyph unicode="n" horiz-adv-x="1042" d="M102 0v1014l154 30v-131q142 99 269 129q58 14 110 13q61 0 111 -19q94 -36 149 -146.5t55 -285.5v-604h-153v604q0 97 -20.5 163.5t-56.5 97.5q-34 31 -80 41q-18 4 -37 3q-29 -1 -60 -9q-51 -14 -102.5 -42.5t-99 -69t-85.5 -86.5v-702h-154z" />
<glyph unicode="o" horiz-adv-x="1179" d="M82 512q0 145 65.5 268.5t183 197t259.5 73.5q143 0 260.5 -73.5t182.5 -197t65 -268.5t-65 -268t-182.5 -197t-260.5 -74q-142 0 -259.5 74t-183 197.5t-65.5 267.5zM236 512q0 -97 47 -185.5t129.5 -144t177.5 -55.5t178 56.5t129.5 145t46.5 183.5q0 98 -47 186.5 t-129 143.5t-178 55q-102 0 -184.5 -55t-126 -142.5t-43.5 -187.5z" />
<glyph unicode="p" horiz-adv-x="1079" d="M102 -563v1577l154 30v-59q77 46 163 63q51 10 101 10q34 0 66 -4q82 -12 157 -53t131 -104.5t89.5 -157t33.5 -204.5q0 -145 -55.5 -268t-154 -198t-234.5 -89q-21 -2 -43 -2q-118 0 -254 63v-573zM256 215q135 -76 245 -76q30 0 59 6q130 27 207 132.5t77 244.5 q0 94 -31 167.5t-81.5 116t-114.5 64.5q-56 18 -113 18h-16q-64 -3 -126 -28t-106 -69v-576z" />
<glyph unicode="q" horiz-adv-x="1079" d="M82 535q0 111 33.5 204.5t89.5 157t131 104.5t156 53q33 4 67 4q50 0 101 -10q86 -17 163 -63v59l154 -30v-1546l-154 -31v604q-136 -63 -254 -63q-22 0 -43 2q-136 14 -234.5 89t-154 198t-55.5 268zM236 522q0 -139 76.5 -244.5t207.5 -132.5q28 -6 58 -6q110 0 245 76 v576q-38 38 -89 62.5t-106 30.5q-26 4 -51 4q-30 0 -61 -4q-56 -8 -106 -36.5t-89 -70.5t-62 -108t-23 -147z" />
<glyph unicode="r" horiz-adv-x="749" d="M102 0v1014l154 30v-96q94 82 223 97q27 3 53 3q97 0 175 -44l26 -179q-59 35 -124 52q-58 15 -118 15h-13q-66 -2 -125.5 -39t-96.5 -108v-745h-154z" />
<glyph unicode="s" horiz-adv-x="946" d="M92 741q0 63 23 114.5t61.5 85t90 56t105.5 32t111 9.5q170 0 316 -77l30 -173q-226 97 -346 97h-15q-107 0 -161 -40q-57 -43 -57 -102q0 -64 76.5 -104.5t222.5 -73.5q150 -33 227.5 -111t77.5 -184q0 -63 -23 -114.5t-61.5 -85t-90 -56t-105.5 -32t-111 -9.5 q-172 0 -316 76l-30 172q206 -91 342 -94h16q109 0 163 39q58 42 58 102q0 64 -76.5 104.5t-222.5 73.5q-150 33 -227.5 111t-77.5 184z" />
<glyph unicode="t" horiz-adv-x="819" d="M61 870l31 154h109v199l161 116v-315h392l-31 -154h-361v-575q0 -42 7.5 -72.5t20 -50.5t35 -29.5t48 -12t63.5 3t75.5 15t90.5 25.5l-28 -166q-106 -30 -185 -34q-14 -1 -27 -1q-62 0 -106 16q-54 19 -86.5 62t-46.5 102.5t-14 141.5v575h-148z" />
<glyph unicode="u" horiz-adv-x="1052" d="M102 420v594l154 30v-624q0 -97 20.5 -163.5t56 -97.5t81.5 -41q18 -4 36 -3q29 1 60 9q51 14 102.5 42.5t99 69t85.5 86.5v702h153v-1024h-153v111q-142 -99 -269 -129q-58 -14 -110 -13q-62 0 -112 19q-94 36 -149 146.5t-55 285.5z" />
<glyph unicode="v" horiz-adv-x="1105" d="M31 1024h168l354 -727l354 727h168l-493 -1024h-58z" />
<glyph unicode="w" horiz-adv-x="1400" d="M31 1024h164l241 -647l242 647h45l242 -647l241 647h164l-383 -1024h-45l-242 647l-241 -647h-45z" />
<glyph unicode="x" horiz-adv-x="1099" d="M41 0l410 512l-410 512h199l311 -387l309 387h199l-410 -512l410 -512h-197l-311 389l-313 -389h-197z" />
<glyph unicode="y" horiz-adv-x="1064" d="M31 1024h166l335 -891l336 891h166l-446 -1178q-71 -186 -157 -263t-210 -85l-35 148q106 15 155.5 63.5t96.5 173.5l13 33z" />
<glyph unicode="z" horiz-adv-x="1046" d="M92 0l576 870h-576l31 154h831l-575 -870h575l-30 -154h-832z" />
<glyph unicode="{" horiz-adv-x="542" d="M51 629v139q20 13 34.5 25.5t25 32.5t17 37t10.5 50.5t5.5 62t2 82.5t-0.5 100t-1.5 127.5t-0.5 152.5q0 157 77.5 230t230.5 73h102l31 -154h-133q-85 0 -119.5 -35t-34.5 -114v-572q0 -100 -68 -168q68 -68 68 -168v-571q0 -79 34.5 -114t119.5 -35h133l-31 -154h-102 q-153 0 -230.5 73t-77.5 230q0 71 0.5 152.5t1.5 127.5t0.5 100t-2 82.5t-5.5 62t-10.5 50.5t-17 37t-25 32.5t-34.5 25.5z" />
<glyph unicode="|" horiz-adv-x="399" d="M123 -307v1904h153v-1904h-153z" />
<glyph unicode="}" horiz-adv-x="542" d="M-41 -190h133q85 0 119.5 35t34.5 114v571q0 101 67 168q-67 67 -67 168v572q0 79 -34.5 114t-119.5 35h-133l31 154h102q152 0 229.5 -73t77.5 -230q0 -70 -0.5 -152t-1.5 -127.5t-0.5 -100.5t2 -83t6 -61.5t10.5 -50.5t17 -37t25.5 -32.5t34.5 -25.5v-139 q-20 -13 -34.5 -25.5t-25.5 -32.5t-17 -37t-10.5 -50.5t-6 -61.5t-2 -83t0.5 -100.5t1.5 -127.5t0.5 -152q0 -157 -77.5 -230t-229.5 -73h-102z" />
<glyph unicode="~" horiz-adv-x="942" d="M102 508l31 168q73 35 138.5 42t158.5 -13q155 -47 222.5 -42.5t187.5 70.5l-31 -168q-73 -35 -138.5 -42t-158.5 14q-156 47 -223 42t-187 -71z" />
<glyph unicode="&#xa1;" horiz-adv-x="522" d="M154 1077q0 44 32 76.5t76 32.5t75.5 -32.5t31.5 -76.5t-31.5 -75t-75.5 -31t-76 31t-32 75zM166 -371l31 1168h131l30 -1168h-192z" />
<glyph unicode="&#xa2;" horiz-adv-x="927" d="M74 655q0 198 101.5 342.5t266.5 182.5v125h154v-115q98 -9 211 -62l35 -170q-60 39 -129 58.5t-137 18.5t-131.5 -26t-111.5 -69.5t-77 -118t-29 -166.5t29 -166.5t77 -118t111.5 -69.5t131.5 -26t137 18.5t129 58.5l-35 -170q-110 -52 -211 -61v-121h-154v131 q-165 38 -266.5 182.5t-101.5 341.5z" />
<glyph unicode="&#xa3;" horiz-adv-x="1136" d="M92 0v154q54 15 95 81.5t59 145t18 149.5v170h-164v154h164v162q0 124 36.5 223.5t101.5 164t152 99t190.5 33.5t213.5 -37l31 -153q-107 44 -208 48t-182.5 -32.5t-131 -125.5t-49.5 -220v-162h338v-154h-338v-170q0 -106 -26 -214t-66 -162h708l-30 -154h-912z" />
<glyph unicode="&#xa4;" horiz-adv-x="1224" d="M92 246l144 143q-84 117 -84 264q0 148 88 273l-146 145l109 109l147 -148q119 82 262 82t265 -82l145 146l108 -109l-145 -145q88 -122 88 -271q0 -142 -82 -264l142 -141l-109 -109l-139 142q-122 -88 -273 -88q-146 0 -268 88l-143 -144zM305 655q0 -127 89.5 -217 t217.5 -90t218 90t90 217t-90 217.5t-218 90.5q-127 0 -217 -90t-90 -218z" />
<glyph unicode="&#xa5;" horiz-adv-x="1431" d="M82 1536h180l455 -797l454 797h179l-480 -836h338v-153h-415v-96h415v-154h-415v-297h-154v297h-414v154h414v96h-414v153h336z" />
<glyph unicode="&#xa6;" horiz-adv-x="399" d="M123 -307v799h153v-799h-153zM123 799v798h153v-798h-153z" />
<glyph unicode="&#xa7;" horiz-adv-x="907" d="M61 639q0 108 62 180q-62 85 -62 209q0 66 23.5 118.5t61.5 85.5t90 54.5t105.5 30t111.5 8.5q95 0 192 -18.5t135 -42.5l29 -156q-76 43 -178.5 63.5t-195.5 15t-157.5 -49.5t-64.5 -121q0 -43 35 -70.5t90.5 -41.5t123.5 -25.5t135.5 -30.5t123 -48.5t90.5 -87 t35 -139.5q0 -108 -62 -180q62 -85 62 -209q0 -66 -23.5 -118.5t-61 -85.5t-89.5 -54.5t-105.5 -30t-111.5 -8.5q-88 0 -179.5 27t-136.5 55l-30 156q61 -40 139 -67t155.5 -33.5t143 6t106.5 55.5t41 111q0 34 -21.5 57t-58.5 35t-84.5 20t-100 15.5t-104.5 18.5 t-99.5 32.5t-84.5 53.5t-58.5 85.5t-21.5 124.5zM215 635q0 -78 119 -119.5t238.5 -23t119.5 85.5q0 78 -119 120t-238.5 23.5t-119.5 -86.5z" />
<glyph unicode="&#xa8;" horiz-adv-x="716" d="M102 1589q0 42 30.5 72.5t72.5 30.5q43 0 72.5 -30t29.5 -73t-29.5 -72.5t-72.5 -29.5q-42 0 -72.5 30t-30.5 72zM410 1589q0 41 30.5 72t71.5 31q42 0 72 -30.5t30 -72.5q0 -43 -29.5 -72.5t-72.5 -29.5q-42 0 -72 30t-30 72z" />
<glyph unicode="&#xa9;" horiz-adv-x="1134" d="M123 1208q0 185 130 315t314 130q185 0 315 -130.5t130 -314.5t-130 -314t-315 -130t-314.5 130t-129.5 314zM201 1208q0 -152 107 -259t259 -107t259.5 107t107.5 259t-107.5 259.5t-259.5 107.5t-259 -107.5t-107 -259.5zM324 1208q0 75 29.5 136.5t80.5 96.5t119 41 t145 -32l17 -86q-46 30 -101 36.5t-102 -10t-79 -64.5t-32 -118t31.5 -118t79 -64t102.5 -9.5t101 36.5l-17 -86q-77 -38 -145 -32t-119 40.5t-80.5 96t-29.5 136.5z" />
<glyph unicode="&#xab;" horiz-adv-x="995" d="M123 512l389 391l109 -108l-281 -283l281 -283l-109 -108zM436 512l389 391l109 -108l-281 -283l281 -283l-109 -108z" />
<glyph unicode="&#xac;" horiz-adv-x="1157" d="M102 748v153h942v-563h-153v410h-789z" />
<glyph unicode="&#xad;" horiz-adv-x="901" d="M123 535v153h655v-153h-655z" />
<glyph unicode="&#xae;" horiz-adv-x="1134" d="M123 1208q0 185 130 315t314 130q185 0 315 -130.5t130 -314.5t-130 -314t-315 -130t-314.5 130t-129.5 314zM205 1208q0 -151 105.5 -257.5t256.5 -106.5t258 106.5t107 257.5t-107 258t-258 107q-150 0 -256 -107t-106 -258zM393 950v516h203q72 0 123 -44t51 -113 q0 -91 -74 -142l84 -221h-86l-65 197h-162v-193h-74zM467 1227h129q52 0 73 26t21 56q0 26 -21.5 50.5t-72.5 24.5h-129v-157z" />
<glyph unicode="&#xaf;" horiz-adv-x="1013" d="M102 1487v153h809v-153h-809z" />
<glyph unicode="&#xb0;" horiz-adv-x="532" d="M41 1323q0 95 65.5 160t159.5 65t160 -65t66 -160t-66 -160t-160 -65t-159.5 65t-65.5 160zM195 1323q0 -29 21 -50.5t50 -21.5t50.5 21.5t21.5 50.5t-21.5 50.5t-50.5 21.5t-50 -21.5t-21 -50.5z" />
<glyph unicode="&#xb1;" horiz-adv-x="1263" d="M102 0v154h1059v-154h-1059zM102 563v154h453v362h154v-362h452v-154h-452v-362h-154v362h-453z" />
<glyph unicode="&#xb4;" horiz-adv-x="645" d="M102 1487l226 317h215l-287 -317h-154z" />
<glyph unicode="&#xb5;" horiz-adv-x="1155" d="M123 -532v1556h153v-565q0 -82 26 -148.5t68.5 -107.5t96.5 -63.5t110.5 -22.5t110.5 22.5t96.5 63.5t68.5 107.5t26 148.5v565h153v-1024h-153v104q-38 -71 -124 -110t-177.5 -39t-177.5 39t-124 110v-667z" />
<glyph unicode="&#xb6;" horiz-adv-x="1179" d="M66 1126q0 173 132.5 292.5t333.5 119.5h525v-102h-58v-1436h-102v1436h-72v-1436h-286v713h-7q-93 0 -171.5 25.5t-132 68t-91 96.5t-54.5 110.5t-17 112.5z" />
<glyph unicode="&#xb7;" horiz-adv-x="428" d="M106 541q0 44 32 75t77 31q44 0 75.5 -31t31.5 -75t-31.5 -76.5t-75.5 -32.5t-76.5 32.5t-32.5 76.5z" />
<glyph unicode="&#xb8;" horiz-adv-x="497" d="M102 -170q24 -14 68 -14q29 0 50.5 21t21.5 50q0 65 -103 99l33 129l16 65l138 -35l-19 -75q88 -68 88 -183q0 -95 -65.5 -160t-159.5 -65h-18z" />
<glyph unicode="&#xbb;" horiz-adv-x="995" d="M61 229l281 283l-281 283l109 108l389 -391l-389 -391zM375 229l280 283l-280 283l108 108l389 -391l-389 -391z" />
<glyph unicode="&#xbf;" horiz-adv-x="921" d="M61 80q0 81 24.5 149.5t64 117.5t86.5 92t94.5 81.5t87 78t64 90t24.5 108.5h151q4 -66 -18 -126.5t-61 -108t-86.5 -93t-96 -89.5t-89 -88t-66 -99t-25.5 -113q0 -91 30 -161t91 -111.5t147 -51t204 22.5t255 106l-31 -174q-71 -41 -188.5 -75.5t-208.5 -34.5 q-193 0 -323 131t-130 348zM475 1077q0 44 31.5 76.5t75.5 32.5t76 -32.5t32 -76.5t-32 -75t-76 -31t-75.5 31t-31.5 75z" />
<glyph unicode="&#xc0;" horiz-adv-x="1552" d="M27 0l690 1536h119l690 -1536h-166l-180 401h-807l-180 -401h-166zM442 555h670l-334 743zM483 1968h215l226 -317h-154z" />
<glyph unicode="&#xc1;" horiz-adv-x="1552" d="M27 0l690 1536h119l690 -1536h-166l-180 401h-807l-180 -401h-166zM442 555h670l-334 743zM635 1651l225 317h215l-287 -317h-153z" />
<glyph unicode="&#xc2;" horiz-adv-x="1572" d="M47 0l690 1536h119l690 -1536h-166l-180 401h-807l-180 -401h-166zM412 1651l307 276h153l308 -276h-215l-168 145l-170 -145h-215zM463 555h670l-334 743z" />
<glyph unicode="&#xc3;" horiz-adv-x="1552" d="M27 0l690 1536h119l690 -1536h-166l-180 401h-807l-180 -401h-166zM408 1640l30 168q73 35 138.5 42t158.5 -13q156 -47 223 -42t187 71l-31 -168q-73 -35 -138.5 -42t-158.5 13q-156 47 -222.5 42t-186.5 -71zM442 555h670l-334 743z" />
<glyph unicode="&#xc4;" horiz-adv-x="1552" d="M27 0l690 1536h119l690 -1536h-166l-180 401h-807l-180 -401h-166zM442 555h670l-334 743zM520 1774q0 42 30.5 72t72.5 30q43 0 72.5 -29.5t29.5 -72.5t-29.5 -73t-72.5 -30q-42 0 -72.5 30.5t-30.5 72.5zM827 1774q0 41 31 71.5t72 30.5q42 0 72 -30t30 -72 q0 -43 -29.5 -73t-72.5 -30q-42 0 -72.5 30.5t-30.5 72.5z" />
<glyph unicode="&#xc5;" horiz-adv-x="1552" d="M27 0l690 1536h119l690 -1536h-166l-180 401h-807l-180 -401h-166zM442 555h670l-334 743zM551 1876q0 95 65.5 160t159.5 65t159.5 -65t65.5 -160t-65.5 -160t-159.5 -65t-159.5 65t-65.5 160zM705 1876q0 -29 21 -50.5t50 -21.5t50.5 21.5t21.5 50.5t-21.5 50.5 t-50.5 21.5t-50 -21.5t-21 -50.5z" />
<glyph unicode="&#xc6;" horiz-adv-x="2048" d="M27 0l1058 1536h830l31 -154h-707v-536h604v-154h-604v-538h707l-31 -154h-830v401h-596l-278 -401h-184zM596 555h489v713z" />
<glyph unicode="&#xc7;" horiz-adv-x="1239" d="M82 764q0 171 55 318t146.5 247t210.5 157.5t247 61.5q163 3 349 -45l36 -186q-201 84 -365.5 66.5t-281 -107.5t-180 -225.5t-63.5 -286.5t63.5 -286.5t180 -225.5t281 -107.5t365.5 66.5l-36 -186q-168 -45 -310 -45l-6 -23q88 -68 88 -182q0 -95 -65.5 -160.5 t-159.5 -65.5h-19l-49 168q25 -14 68 -14q29 0 50.5 21.5t21.5 50.5q0 10 -2.5 20t-7 17.5t-10.5 14.5t-12.5 12.5t-14.5 10t-14.5 8t-14 6.5t-12 4.5t-9.5 3.5l-6 1l31 119q-113 24 -213 89t-176.5 162.5t-121 232.5t-44.5 288z" />
<glyph unicode="&#xc8;" horiz-adv-x="1245" d="M123 0v1536h989l31 -154h-867v-536h748v-154h-748v-538h867l-31 -154h-989zM340 1968h215l225 -317h-153z" />
<glyph unicode="&#xc9;" horiz-adv-x="1245" d="M123 0v1536h989l31 -154h-867v-536h748v-154h-748v-538h867l-31 -154h-989zM510 1651l225 317h215l-286 -317h-154z" />
<glyph unicode="&#xca;" horiz-adv-x="1245" d="M123 0v1536h989l31 -154h-867v-536h748v-154h-748v-538h867l-31 -154h-989zM236 1651l307 276h153l308 -276h-216l-167 145l-170 -145h-215z" />
<glyph unicode="&#xcb;" horiz-adv-x="1245" d="M123 0v1536h989l31 -154h-867v-536h748v-154h-748v-538h867l-31 -154h-989zM371 1774q0 42 30 72t72 30q43 0 72.5 -29.5t29.5 -72.5t-29.5 -73t-72.5 -30q-41 0 -71.5 30.5t-30.5 72.5zM678 1774q0 41 30.5 71.5t71.5 30.5q42 0 72.5 -30t30.5 -72q0 -43 -30 -73 t-73 -30q-42 0 -72 30.5t-30 72.5z" />
<glyph unicode="&#xcc;" horiz-adv-x="460" d="M-59 1968h215l225 -317h-154zM154 0v1536h153v-1536h-153z" />
<glyph unicode="&#xcd;" horiz-adv-x="460" d="M47 1651l225 317h215l-286 -317h-154zM154 0v1536h153v-1536h-153z" />
<glyph unicode="&#xce;" horiz-adv-x="460" d="M-154 1651l308 276h153l307 -276h-215l-168 145l-170 -145h-215zM154 0v1536h153v-1536h-153z" />
<glyph unicode="&#xcf;" horiz-adv-x="462" d="M-25 1774q0 42 30.5 72t72.5 30q43 0 72.5 -29.5t29.5 -72.5t-29.5 -73t-72.5 -30q-42 0 -72.5 30.5t-30.5 72.5zM154 0v1536h153v-1536h-153zM283 1774q0 41 30.5 71.5t71.5 30.5q42 0 72 -30t30 -72q0 -43 -29.5 -73t-72.5 -30q-41 0 -71.5 30.5t-30.5 72.5z" />
<glyph unicode="&#xd0;" horiz-adv-x="1511" d="M102 688v154h150v694h504q154 0 273 -43t193.5 -114t122.5 -172.5t66.5 -208t18.5 -230.5q0 -356 -178 -562t-482 -206h-518v688h-150zM406 174h364q236 0 371 154t135 440q0 107 -16 196.5t-53.5 168t-95.5 133t-147.5 85.5t-203.5 31h-354v-540h290v-154h-290v-514z " />
<glyph unicode="&#xd1;" horiz-adv-x="1443" d="M123 0v1536h92l952 -1212v1212h154v-1536h-92l-953 1212v-1212h-153zM354 1640l31 168q73 35 138.5 42t158.5 -13q156 -47 223 -42t187 71l-31 -168q-73 -35 -138.5 -42t-158.5 13q-156 47 -223 42t-187 -71z" />
<glyph unicode="&#xd2;" d="M82 768q0 217 94.5 401t258.5 292t358 108t357.5 -108t258 -292t94.5 -401t-94.5 -401t-258 -292t-357.5 -108t-358 108t-258.5 292t-94.5 401zM236 768q0 -129 43.5 -248t118 -206.5t178 -140t217.5 -52.5t217.5 52.5t178 140t118 206.5t43.5 248t-43.5 248t-118 206.5 t-178 140t-217.5 52.5t-217.5 -52.5t-178 -140t-118 -206.5t-43.5 -248zM475 1968h215l225 -317h-153z" />
<glyph unicode="&#xd3;" d="M82 768q0 217 94.5 401t258.5 292t358 108t357.5 -108t258 -292t94.5 -401t-94.5 -401t-258 -292t-357.5 -108t-358 108t-258.5 292t-94.5 401zM236 768q0 -129 43.5 -248t118 -206.5t178 -140t217.5 -52.5t217.5 52.5t178 140t118 206.5t43.5 248t-43.5 248t-118 206.5 t-178 140t-217.5 52.5t-217.5 -52.5t-178 -140t-118 -206.5t-43.5 -248zM653 1651l226 317h215l-287 -317h-154z" />
<glyph unicode="&#xd4;" d="M82 768q0 217 94.5 401t258.5 292t358 108t357.5 -108t258 -292t94.5 -401t-94.5 -401t-258 -292t-357.5 -108t-358 108t-258.5 292t-94.5 401zM236 768q0 -129 43.5 -248t118 -206.5t178 -140t217.5 -52.5t217.5 52.5t178 140t118 206.5t43.5 248t-43.5 248t-118 206.5 t-178 140t-217.5 52.5t-217.5 -52.5t-178 -140t-118 -206.5t-43.5 -248zM389 1651l307 276h154l307 -276h-215l-168 145l-170 -145h-215z" />
<glyph unicode="&#xd5;" d="M82 768q0 217 94.5 401t258.5 292t358 108t357.5 -108t258 -292t94.5 -401t-94.5 -401t-258 -292t-357.5 -108t-358 108t-258.5 292t-94.5 401zM236 768q0 -129 43.5 -248t118 -206.5t178 -140t217.5 -52.5t217.5 52.5t178 140t118 206.5t43.5 248t-43.5 248t-118 206.5 t-178 140t-217.5 52.5t-217.5 -52.5t-178 -140t-118 -206.5t-43.5 -248zM408 1640l30 168q73 35 138.5 42t158.5 -13q156 -47 223 -42t187 71l-31 -168q-73 -35 -138.5 -42t-158.5 13q-156 47 -222.5 42t-186.5 -71z" />
<glyph unicode="&#xd6;" d="M82 768q0 217 94.5 401t258.5 292t358 108t357.5 -108t258 -292t94.5 -401t-94.5 -401t-258 -292t-357.5 -108t-358 108t-258.5 292t-94.5 401zM236 768q0 -129 43.5 -248t118 -206.5t178 -140t217.5 -52.5t217.5 52.5t178 140t118 206.5t43.5 248t-43.5 248t-118 206.5 t-178 140t-217.5 52.5t-217.5 -52.5t-178 -140t-118 -206.5t-43.5 -248zM516 1774q0 42 30 72t72 30q43 0 73 -29.5t30 -72.5t-30 -73t-73 -30q-42 0 -72 30.5t-30 72.5zM823 1774q0 41 31 71.5t72 30.5q42 0 72 -30t30 -72q0 -43 -29.5 -73t-72.5 -30q-42 0 -72.5 30.5 t-30.5 72.5z" />
<glyph unicode="&#xd7;" horiz-adv-x="1015" d="M92 217l723 723l109 -109l-723 -725z" />
<glyph unicode="&#xd8;" horiz-adv-x="1605" d="M92 768q0 217 94.5 401t258.5 292t358 108q210 0 391 -131l74 98h200l-155 -209q95 -110 147.5 -254.5t52.5 -304.5q0 -217 -94.5 -401t-258 -292t-357.5 -108q-220 0 -402 139l-79 -106h-205l166 221q-91 109 -141 250t-50 297zM246 768q0 -236 133 -418l723 963 q-133 102 -299 102q-114 0 -217.5 -52.5t-178 -140t-118 -206.5t-43.5 -248zM494 231q138 -110 309 -110q114 0 217.5 52.5t178 140t118 206.5t43.5 248q0 247 -143 430z" />
<glyph unicode="&#xd9;" horiz-adv-x="1392" d="M123 623v913h153v-913q0 -74 17.5 -144.5t53 -132.5t84.5 -109t117 -74t146 -26q122 1 220.5 72t150 180.5t51.5 231.5v915h154v-915q0 -170 -69.5 -314.5t-202.5 -233.5t-304 -89q-127 0 -235.5 52t-181 140t-113.5 204t-41 243zM414 1968h215l225 -317h-154z" />
<glyph unicode="&#xda;" horiz-adv-x="1392" d="M123 623v913h153v-913q0 -74 17.5 -144.5t53 -132.5t84.5 -109t117 -74t146 -26q122 1 220.5 72t150 180.5t51.5 231.5v915h154v-915q0 -170 -69.5 -314.5t-202.5 -233.5t-304 -89q-127 0 -235.5 52t-181 140t-113.5 204t-41 243zM580 1651l225 317h215l-287 -317h-153z " />
<glyph unicode="&#xdb;" horiz-adv-x="1392" d="M123 623v913h153v-913q0 -74 17.5 -144.5t53 -132.5t84.5 -109t117 -74t146 -26q122 1 220.5 72t150 180.5t51.5 231.5v915h154v-915q0 -170 -69.5 -314.5t-202.5 -233.5t-304 -89q-127 0 -235.5 52t-181 140t-113.5 204t-41 243zM334 1651l307 276h154l307 -276h-215 l-168 145l-170 -145h-215z" />
<glyph unicode="&#xdc;" horiz-adv-x="1392" d="M123 623v913h153v-913q0 -74 17.5 -144.5t53 -132.5t84.5 -109t117 -74t146 -26q122 1 220.5 72t150 180.5t51.5 231.5v915h154v-915q0 -170 -69.5 -314.5t-202.5 -233.5t-304 -89q-127 0 -235.5 52t-181 140t-113.5 204t-41 243zM440 1774q0 42 30.5 72t72.5 30 q43 0 72.5 -29.5t29.5 -72.5t-29.5 -73t-72.5 -30q-42 0 -72.5 30.5t-30.5 72.5zM748 1774q0 41 30.5 71.5t71.5 30.5q42 0 72 -30t30 -72q0 -43 -29.5 -73t-72.5 -30q-42 0 -72 30.5t-30 72.5z" />
<glyph unicode="&#xdd;" horiz-adv-x="1320" d="M27 1536h180l455 -797l454 797h178l-557 -971v-565h-153v565zM549 1651l225 317h215l-287 -317h-153z" />
<glyph unicode="&#xde;" horiz-adv-x="903" d="M123 0v1538h153v-328h150q87 0 157.5 -25.5t115.5 -66t75.5 -93t43.5 -104t13 -102.5t-13 -102.5t-43.5 -104.5t-75.5 -94t-115.5 -66.5t-157.5 -25.5h-150v-426h-153zM276 580h150q114 0 183 62t69 177q0 119 -66 178.5t-186 59.5h-150v-477z" />
<glyph unicode="&#xdf;" horiz-adv-x="1097" d="M102 -31v1047q0 310 144 474q101 115 237 119q127 5 218 -87q106 -107 106 -293q0 -76 -31.5 -139.5t-76.5 -104t-89.5 -74t-76 -66t-31.5 -63.5q0 -36 28 -64t72 -48.5t98 -41t108 -47.5t98 -62t72 -92t28 -130q0 -104 -33 -177t-84.5 -108t-119.5 -49.5t-132.5 -10 t-129.5 17.5t-105 26t-64 24v168q184 -75 299 -85t165 38.5t50 155.5q0 46 -28 81t-72 58t-98 44.5t-108 46.5t-98 56.5t-72 82t-28 116.5q0 48 22.5 90.5t56.5 72.5t73.5 63.5t73.5 62.5t56.5 70.5t22.5 87.5q0 132 -75 189q-64 49 -143 14q-91 -41 -140 -171 q-39 -104 -39 -245v-1077z" />
<glyph unicode="&#xe0;" horiz-adv-x="1017" d="M82 328q0 79 27.5 140.5t76 98t110.5 58.5t134 26.5t144 -2.5t143 -26q6 91 -25.5 150.5t-88.5 84t-134 24t-160.5 -22t-171.5 -60.5l35 200q85 28 173.5 41t179.5 4t163.5 -40.5t122.5 -101t59 -169.5q6 -65 -1 -172.5t-12.5 -184.5t12 -152.5t67.5 -110.5l-49 -142 q-82 19 -123 78q-131 -61 -245.5 -75t-192.5 12.5t-134.5 79.5t-83 121t-26.5 141zM236 328q0 -90 56.5 -139.5t134 -54.5t158 16t130.5 61q-16 105 -8 248q-68 21 -145.5 28t-152.5 -1t-124 -48.5t-49 -109.5zM236 1481h215l225 -318h-154z" />
<glyph unicode="&#xe1;" horiz-adv-x="1017" d="M82 328q0 79 27.5 140.5t76 98t110.5 58.5t134 26.5t144 -2.5t143 -26q6 91 -25.5 150.5t-88.5 84t-134 24t-160.5 -22t-171.5 -60.5l35 200q85 28 173.5 41t179.5 4t163.5 -40.5t122.5 -101t59 -169.5q6 -65 -1 -172.5t-12.5 -184.5t12 -152.5t67.5 -110.5l-70 -152 q-53 18 -102 88q-131 -61 -245.5 -75t-192.5 12.5t-134.5 79.5t-83 121t-26.5 141zM236 328q0 -90 56.5 -139.5t134 -54.5t158 16t130.5 61q-16 105 -8 248q-68 21 -145.5 28t-152.5 -1t-124 -48.5t-49 -109.5zM348 1163l225 318h215l-286 -318h-154z" />
<glyph unicode="&#xe2;" horiz-adv-x="1017" d="M82 328q0 79 27.5 140.5t76 98t110.5 58.5t134 26.5t144 -2.5t143 -26q6 91 -25.5 150.5t-88.5 84t-134 24t-160.5 -22t-171.5 -60.5l35 200q85 28 173.5 41t179.5 4t163.5 -40.5t122.5 -101t59 -169.5q6 -65 -1 -172.5t-12.5 -184.5t12 -152.5t67.5 -110.5l-49 -142 q-82 19 -123 78q-131 -61 -245.5 -75t-192.5 12.5t-134.5 79.5t-83 121t-26.5 141zM123 1163l307 277h154l307 -277h-215l-168 146l-170 -146h-215zM236 328q0 -90 56.5 -139.5t134 -54.5t158 16t130.5 61q-16 105 -8 248q-68 21 -145.5 28t-152.5 -1t-124 -48.5t-49 -109.5 z" />
<glyph unicode="&#xe4;" horiz-adv-x="1017" d="M82 328q0 79 27.5 140.5t76 98t110.5 58.5t134 26.5t144 -2.5t143 -26q6 91 -25.5 150.5t-88.5 84t-134 24t-160.5 -22t-171.5 -60.5l35 200q85 28 173.5 41t179.5 4t163.5 -40.5t122.5 -101t59 -169.5q6 -65 -1 -172.5t-12.5 -184.5t12 -152.5t67.5 -110.5l-49 -142 q-82 19 -123 78q-131 -61 -245.5 -75t-192.5 12.5t-134.5 79.5t-83 121t-26.5 141zM236 328q0 -90 56.5 -139.5t134 -54.5t158 16t130.5 61q-16 105 -8 248q-68 21 -145.5 28t-152.5 -1t-124 -48.5t-49 -109.5zM266 1266q0 42 30.5 72t72.5 30q43 0 72.5 -29.5t29.5 -72.5 t-29.5 -73t-72.5 -30q-42 0 -72.5 30.5t-30.5 72.5zM573 1266q0 41 31 71.5t72 30.5q42 0 72 -30t30 -72q0 -43 -29.5 -73t-72.5 -30q-42 0 -72.5 30.5t-30.5 72.5z" />
<glyph unicode="&#xe5;" horiz-adv-x="1017" d="M82 328q0 79 27.5 140.5t76 98t110.5 58.5t134 26.5t144 -2.5t143 -26q6 91 -25.5 150.5t-88.5 84t-134 24t-160.5 -22t-171.5 -60.5l35 200q85 28 173.5 41t179.5 4t163.5 -40.5t122.5 -101t59 -169.5q6 -65 -1 -172.5t-12.5 -184.5t12 -152.5t67.5 -110.5l-49 -142 q-82 19 -123 78q-131 -61 -245.5 -75t-192.5 12.5t-134.5 79.5t-83 121t-26.5 141zM236 328q0 -90 56.5 -139.5t134 -54.5t158 16t130.5 61q-16 105 -8 248q-68 21 -145.5 28t-152.5 -1t-124 -48.5t-49 -109.5zM297 1393q0 95 65.5 160t159.5 65t160 -65t66 -160t-66 -160.5 t-160 -65.5t-159.5 65.5t-65.5 160.5zM451 1393q0 -29 21 -50.5t50 -21.5t50.5 21.5t21.5 50.5t-21.5 50t-50.5 21t-50 -21t-21 -50z" />
<glyph unicode="&#xe6;" horiz-adv-x="1722" d="M82 328q0 79 27.5 140.5t76 98t110.5 58.5t134 26.5t144 -2.5t143 -26v10q4 88 -28 145.5t-89 80.5t-134 22t-159.5 -22.5t-169.5 -59.5l35 200q85 28 175.5 40t179.5 5.5t166 -43.5t122 -102q118 164 356 158q128 -3 222 -48t143.5 -112t73.5 -152t22.5 -164t-20.5 -151 h-748q2 -34 15.5 -71t41.5 -75.5t66.5 -71.5t95.5 -55.5t124.5 -30.5t157 6t189.5 52l-24 -164q-148 -44 -272.5 -47.5t-212.5 25.5t-154 86q-118 -54 -223 -80t-185.5 -26t-147.5 19.5t-113 54t-78 80t-47 95t-15 101.5zM236 328q0 -72 39 -120.5t101.5 -65.5t135.5 -15.5 t145.5 24t128.5 58.5q-60 106 -73 248l-6 2q-68 21 -145.5 28t-152.5 -1t-124 -48.5t-49 -109.5zM870 586h607q4 78 -16.5 137t-53.5 91.5t-80 52.5t-86.5 26t-83.5 6q-140 0 -207 -72t-78 -215z" />
<glyph unicode="&#xe7;" horiz-adv-x="927" d="M74 512q0 97 27 184.5t74.5 156t116 115.5t148 67.5t175 8.5t192.5 -59l35 -170q-60 39 -129 58.5t-137 18.5t-131.5 -26t-111.5 -69.5t-77 -118t-29 -166.5t29 -166.5t77 -118t111.5 -69.5t131.5 -26t137 18.5t129 58.5l-35 -170q-109 -53 -209 -62q18 -41 18 -90 q0 -95 -65.5 -160t-159.5 -65h-18l-49 168q24 -14 67 -14q29 0 50.5 21t21.5 50q0 65 -103 99l7 26q-133 59 -213 193.5t-80 306.5z" />
<glyph unicode="&#xe8;" horiz-adv-x="1126" d="M82 520q0 108 32.5 203t94 168t159 114.5t218.5 38.5q105 -2 187.5 -34.5t132 -85t81 -117t41.5 -136t7 -136.5t-17 -123h-772q6 -41 29 -83t62 -82.5t99.5 -68.5t135 -41t175.5 0.5t214 55.5l-25 -164q-178 -54 -317.5 -46.5t-240.5 53.5t-167 125.5t-97.5 170.5 t-31.5 188zM233 567h656q3 76 -18 136t-54.5 95t-78.5 58t-86 31t-81 8q-149 0 -241.5 -88t-96.5 -240zM281 1481h217l225 -318h-154z" />
<glyph unicode="&#xe9;" horiz-adv-x="1126" d="M82 520q0 108 32.5 203t94 168t159 114.5t218.5 38.5q105 -2 187.5 -34.5t132 -85t81 -117t41.5 -136t7 -136.5t-17 -123h-772q6 -41 29 -83t62 -82.5t99.5 -68.5t135 -41t175.5 0.5t214 55.5l-25 -164q-178 -54 -317.5 -46.5t-240.5 53.5t-167 125.5t-97.5 170.5 t-31.5 188zM233 567h656q3 76 -18 136t-54.5 95t-78.5 58t-86 31t-81 8q-149 0 -241.5 -88t-96.5 -240zM449 1163l225 318h215l-287 -318h-153z" />
<glyph unicode="&#xea;" horiz-adv-x="1126" d="M82 520q0 108 32.5 203t94 168t159 114.5t218.5 38.5q105 -2 187.5 -34.5t132 -85t81 -117t41.5 -136t7 -136.5t-17 -123h-772q6 -41 29 -83t62 -82.5t99.5 -68.5t135 -41t175.5 0.5t214 55.5l-25 -164q-178 -54 -317.5 -46.5t-240.5 53.5t-167 125.5t-97.5 170.5 t-31.5 188zM197 1163l307 277h153l308 -277h-215l-168 146l-170 -146h-215zM233 567h656q3 76 -18 136t-54.5 95t-78.5 58t-86 31t-81 8q-149 0 -241.5 -88t-96.5 -240z" />
<glyph unicode="&#xeb;" horiz-adv-x="1126" d="M82 520q0 108 32.5 203t94 168t159 114.5t218.5 38.5q105 -2 187.5 -34.5t132 -85t81 -117t41.5 -136t7 -136.5t-17 -123h-772q6 -41 29 -83t62 -82.5t99.5 -68.5t135 -41t175.5 0.5t214 55.5l-25 -164q-178 -54 -317.5 -46.5t-240.5 53.5t-167 125.5t-97.5 170.5 t-31.5 188zM233 567h656q3 76 -18 136t-54.5 95t-78.5 58t-86 31t-81 8q-149 0 -241.5 -88t-96.5 -240zM326 1266q0 42 30 72t72 30q43 0 72.5 -29.5t29.5 -72.5t-29.5 -73t-72.5 -30q-42 0 -72 30.5t-30 72.5zM633 1266q0 41 30.5 71.5t71.5 30.5q43 0 73 -30t30 -72 q0 -43 -30 -73t-73 -30q-41 0 -71.5 30.5t-30.5 72.5z" />
<glyph unicode="&#xec;" horiz-adv-x="399" d="M-104 1481h215l225 -318h-154zM125 0v1004l151 51v-1055h-151z" />
<glyph unicode="&#xed;" horiz-adv-x="399" d="M39 1163l225 318h215l-286 -318h-154zM125 0v1004l151 51v-1055h-151z" />
<glyph unicode="&#xee;" horiz-adv-x="399" d="M-184 1163l307 277h153l308 -277h-215l-168 146l-170 -146h-215zM125 0v1004l151 51v-1055h-151z" />
<glyph unicode="&#xef;" horiz-adv-x="399" d="M-55 1266q0 42 30 72t72 30q43 0 73 -29.5t30 -72.5t-30 -73t-73 -30q-41 0 -71.5 30.5t-30.5 72.5zM125 0v1004l151 51v-1055h-151zM252 1266q0 41 30.5 71.5t71.5 30.5q42 0 72.5 -30t30.5 -72q0 -43 -30 -73t-73 -30q-42 0 -72 30.5t-30 72.5z" />
<glyph unicode="&#xf0;" horiz-adv-x="1071" d="M74 535q0 111 33.5 202t89.5 151.5t130.5 100.5t157 53t167.5 4.5t163 -40.5v41q0 175 -110 288l-185 -166l-102 115l155 137q-84 35 -184.5 28t-193.5 -60l34 170q86 42 173.5 51t162 -10t140.5 -62l96 86l100 -115l-80 -71q70 -80 109 -182.5t39 -208.5v-873 q-134 -94 -252 -144t-207.5 -56t-163 19.5t-123.5 78t-84 126.5t-49.5 158.5t-15.5 178.5zM227 522q0 -96 22 -175t70 -133t115.5 -72.5t166 14t214.5 120.5v535q-45 35 -106 53.5t-126.5 20t-129 -20.5t-114 -63t-81.5 -113.5t-31 -165.5z" />
<glyph unicode="&#xf1;" horiz-adv-x="1042" d="M102 0v1014l154 30v-131q142 98 269 128.5t221 -5.5t149 -146.5t55 -285.5v-604h-153v604q0 97 -20.5 163.5t-56 97.5t-81 40.5t-96.5 -5t-102.5 -43t-99 -69t-85.5 -86.5v-702h-154zM154 1184l30 168q73 35 138.5 42t158.5 -14q156 -47 223 -42t187 71l-31 -168 q-73 -35 -138.5 -42t-158.5 13q-155 47 -222 42.5t-187 -70.5z" />
<glyph unicode="&#xf2;" horiz-adv-x="1179" d="M82 512q0 145 65.5 268.5t183 197t259.5 73.5q143 0 260.5 -73.5t182.5 -197t65 -268.5t-65 -268t-182.5 -197t-260.5 -74q-142 0 -259.5 74t-183 197.5t-65.5 267.5zM236 512q0 -97 47 -185.5t129.5 -144t177.5 -55.5t178 56.5t129.5 145t46.5 183.5q0 98 -47 186.5 t-129 143.5t-178 55q-102 0 -184.5 -55t-126 -142.5t-43.5 -187.5zM289 1481h217l225 -318h-153z" />
<glyph unicode="&#xf3;" horiz-adv-x="1179" d="M82 512q0 145 65.5 268.5t183 197t259.5 73.5q143 0 260.5 -73.5t182.5 -197t65 -268.5t-65 -268t-182.5 -197t-260.5 -74q-142 0 -259.5 74t-183 197.5t-65.5 267.5zM236 512q0 -97 47 -185.5t129.5 -144t177.5 -55.5t178 56.5t129.5 145t46.5 183.5q0 98 -47 186.5 t-129 143.5t-178 55q-102 0 -184.5 -55t-126 -142.5t-43.5 -187.5zM457 1163l225 318h215l-287 -318h-153z" />
<glyph unicode="&#xf4;" horiz-adv-x="1179" d="M82 512q0 145 65.5 268.5t183 197t259.5 73.5q143 0 260.5 -73.5t182.5 -197t65 -268.5t-65 -268t-182.5 -197t-260.5 -74q-142 0 -259.5 74t-183 197.5t-65.5 267.5zM207 1163l307 277h154l307 -277h-215l-168 146l-170 -146h-215zM236 512q0 -97 47 -185.5t129.5 -144 t177.5 -55.5t178 56.5t129.5 145t46.5 183.5q0 98 -47 186.5t-129 143.5t-178 55q-102 0 -184.5 -55t-126 -142.5t-43.5 -187.5z" />
<glyph unicode="&#xf5;" horiz-adv-x="1179" d="M82 512q0 145 65.5 268.5t183 197t259.5 73.5q143 0 260.5 -73.5t182.5 -197t65 -268.5t-65 -268t-182.5 -197t-260.5 -74q-142 0 -259.5 74t-183 197.5t-65.5 267.5zM231 1184l31 168q73 35 138.5 42t158.5 -14q156 -47 223 -42t187 71l-31 -168q-73 -35 -138.5 -42 t-158.5 13q-155 47 -222.5 42.5t-187.5 -70.5zM236 512q0 -97 47 -185.5t129.5 -144t177.5 -55.5t178 56.5t129.5 145t46.5 183.5q0 98 -47 186.5t-129 143.5t-178 55q-102 0 -184.5 -55t-126 -142.5t-43.5 -187.5z" />
<glyph unicode="&#xf6;" horiz-adv-x="1179" d="M82 512q0 145 65.5 268.5t183 197t259.5 73.5q143 0 260.5 -73.5t182.5 -197t65 -268.5t-65 -268t-182.5 -197t-260.5 -74q-142 0 -259.5 74t-183 197.5t-65.5 267.5zM236 512q0 -97 47 -185.5t129.5 -144t177.5 -55.5t178 56.5t129.5 145t46.5 183.5q0 98 -47 186.5 t-129 143.5t-178 55q-102 0 -184.5 -55t-126 -142.5t-43.5 -187.5zM334 1266q0 42 30 72t72 30q43 0 73 -29.5t30 -72.5t-30 -73t-73 -30q-42 0 -72 30.5t-30 72.5zM641 1266q0 41 30.5 71.5t71.5 30.5q43 0 73 -30t30 -72q0 -43 -30 -73t-73 -30q-41 0 -71.5 30.5 t-30.5 72.5z" />
<glyph unicode="&#xf7;" horiz-adv-x="1310" d="M102 498v155h1106v-155h-1106zM547 88q0 44 32 75.5t76 31.5t75.5 -31.5t31.5 -75.5t-31.5 -76t-75.5 -32t-76 32t-32 76zM547 1065q0 44 32 75t76 31t75.5 -31t31.5 -75t-31.5 -76.5t-75.5 -32.5t-76 32.5t-32 76.5z" />
<glyph unicode="&#xf8;" horiz-adv-x="1196" d="M90 512q0 145 65.5 268.5t183 197t259.5 73.5q136 0 258 -72l33 45h201l-113 -150q129 -151 129 -362q0 -145 -65 -268t-182.5 -197t-260.5 -74q-128 0 -244 66l-28 -39h-205l106 141q-137 156 -137 371zM244 512q0 -127 82 -240l434 580q-76 45 -162 45 q-102 0 -184.5 -55t-126 -142.5t-43.5 -187.5zM449 166q70 -39 149 -39q95 0 178 56.5t129.5 145t46.5 183.5q0 126 -73 229z" />
<glyph unicode="&#xf9;" horiz-adv-x="1052" d="M102 420v594l154 30v-624q0 -97 20.5 -163.5t56 -97.5t81 -40.5t96.5 5t102.5 43t99 69t85.5 86.5v702h153v-1024h-153v111q-142 -98 -269 -128.5t-221.5 5.5t-149.5 146.5t-55 285.5zM260 1481h217l225 -318h-153z" />
<glyph unicode="&#xfa;" horiz-adv-x="1052" d="M102 420v594l154 30v-624q0 -97 20.5 -163.5t56 -97.5t81 -40.5t96.5 5t102.5 43t99 69t85.5 86.5v702h153v-1024h-153v111q-142 -98 -269 -128.5t-221.5 5.5t-149.5 146.5t-55 285.5zM428 1163l225 318h215l-286 -318h-154z" />
<glyph unicode="&#xfb;" horiz-adv-x="1052" d="M102 420v594l154 30v-624q0 -97 20.5 -163.5t56 -97.5t81 -40.5t96.5 5t102.5 43t99 69t85.5 86.5v702h153v-1024h-153v111q-142 -98 -269 -128.5t-221.5 5.5t-149.5 146.5t-55 285.5zM154 1163l307 277h153l308 -277h-215l-168 146l-170 -146h-215z" />
<glyph unicode="&#xfc;" horiz-adv-x="1052" d="M102 420v594l154 30v-624q0 -97 20.5 -163.5t56 -97.5t81 -40.5t96.5 5t102.5 43t99 69t85.5 86.5v702h153v-1024h-153v111q-142 -98 -269 -128.5t-221.5 5.5t-149.5 146.5t-55 285.5zM301 1266q0 42 30 72t72 30q43 0 73 -29.5t30 -72.5t-30 -73t-73 -30 q-41 0 -71.5 30.5t-30.5 72.5zM608 1266q0 41 31 71.5t72 30.5q42 0 72 -30t30 -72q0 -43 -29.5 -73t-72.5 -30q-42 0 -72.5 30.5t-30.5 72.5z" />
<glyph unicode="&#xfd;" horiz-adv-x="1064" d="M31 1024h166l335 -891l336 891h166l-446 -1178q-71 -186 -157 -263t-210 -85l-35 148q106 15 155.5 63.5t96.5 173.5l13 33zM408 1163l225 318h215l-287 -318h-153z" />
<glyph unicode="&#xfe;" horiz-adv-x="1046" d="M102 -430v1884l154 31v-488q114 49 223 51t195.5 -38.5t152.5 -112t102 -171.5t36 -214t-36 -214t-102 -171.5t-152.5 -112t-195.5 -38.5t-223 51v-426zM256 197q72 -35 149 -46t149 6t130 58.5t92.5 118t34.5 178.5t-34.5 178.5t-92.5 118t-130 58.5t-149 6t-149 -46 v-630z" />
<glyph unicode="&#xff;" horiz-adv-x="1064" d="M31 1024h166l335 -891l336 891h166l-446 -1178q-71 -186 -157 -263t-210 -85l-35 148q106 15 155.5 63.5t96.5 173.5l13 33zM276 1266q0 42 30.5 72t72.5 30q43 0 72.5 -29.5t29.5 -72.5t-29.5 -73t-72.5 -30q-42 0 -72.5 30.5t-30.5 72.5zM584 1266q0 41 30.5 71.5 t71.5 30.5q42 0 72 -30t30 -72q0 -43 -29.5 -73t-72.5 -30q-42 0 -72 30.5t-30 72.5z" />
<glyph unicode="&#x152;" horiz-adv-x="2119" d="M82 768q0 160 55 305t148.5 250t222.5 167t272 62q188 0 346 -102v86h861l30 -154h-737v-536h666v-154h-666v-538h737l-30 -154h-861v86q-158 -102 -346 -102q-143 0 -272 62t-222.5 167t-148.5 250t-55 305zM236 768q0 -168 74 -313.5t199.5 -231.5t270.5 -86 q82 0 141.5 27.5t107.5 95.5t72.5 195t24.5 313t-24.5 313t-72.5 195t-107.5 95.5t-141.5 27.5q-145 0 -270.5 -86t-199.5 -231.5t-74 -313.5z" />
<glyph unicode="&#x153;" horiz-adv-x="1966" d="M82 512q0 145 65.5 268.5t183 197t259.5 73.5q133 0 244.5 -65t179.5 -175q63 118 175 184t267 62q98 -2 174.5 -34t123 -83.5t76 -115t38.5 -134t5.5 -136t-18.5 -124.5h-747q2 -34 15.5 -71t41.5 -75.5t66.5 -71.5t95.5 -55.5t124.5 -30.5t157 6t189.5 52l-24 -164 q-121 -36 -227.5 -45t-187.5 5.5t-148 49t-113.5 81.5t-79.5 108q-68 -113 -180.5 -179.5t-247.5 -66.5q-142 0 -259.5 74t-183 197.5t-65.5 267.5zM236 512q0 -97 47 -185.5t129.5 -144t177.5 -55.5t178 56.5t129.5 145t46.5 183.5q0 98 -47 186.5t-129 143.5t-178 55 q-102 0 -184.5 -55t-126 -142.5t-43.5 -187.5zM1108 586h625q10 62 -5 115t-46.5 88.5t-73.5 61t-84.5 37t-81.5 11.5q-151 0 -239 -81.5t-95 -231.5z" />
<glyph unicode="&#x178;" horiz-adv-x="1320" d="M27 1536h180l455 -797l454 797h178l-557 -971v-565h-153v565zM406 1774q0 42 30 72t72 30q43 0 72.5 -29.5t29.5 -72.5t-29.5 -73t-72.5 -30q-42 0 -72 30.5t-30 72.5zM713 1774q0 41 30.5 71.5t71.5 30.5q43 0 73 -30t30 -72q0 -43 -30 -73t-73 -30q-41 0 -71.5 30.5 t-30.5 72.5z" />
<glyph unicode="&#x2c6;" horiz-adv-x="972" d="M102 1487l308 276h153l307 -276h-215l-168 145l-170 -145h-215z" />
<glyph unicode="&#x2dc;" horiz-adv-x="942" d="M102 1532l31 168q73 35 138.5 42t158.5 -13q155 -47 222.5 -42.5t187.5 70.5l-31 -168q-73 -35 -138.5 -42t-158.5 14q-156 47 -223 42t-187 -71z" />
<glyph unicode="&#x2000;" horiz-adv-x="1050" />
<glyph unicode="&#x2001;" horiz-adv-x="2101" />
<glyph unicode="&#x2002;" horiz-adv-x="1050" />
<glyph unicode="&#x2003;" horiz-adv-x="2101" />
<glyph unicode="&#x2004;" horiz-adv-x="700" />
<glyph unicode="&#x2005;" horiz-adv-x="525" />
<glyph unicode="&#x2006;" horiz-adv-x="350" />
<glyph unicode="&#x2007;" horiz-adv-x="350" />
<glyph unicode="&#x2008;" horiz-adv-x="262" />
<glyph unicode="&#x2009;" horiz-adv-x="420" />
<glyph unicode="&#x200a;" horiz-adv-x="116" />
<glyph unicode="&#x2010;" horiz-adv-x="901" d="M123 535v153h655v-153h-655z" />
<glyph unicode="&#x2011;" horiz-adv-x="901" d="M123 535v153h655v-153h-655z" />
<glyph unicode="&#x2012;" horiz-adv-x="901" d="M123 535v153h655v-153h-655z" />
<glyph unicode="&#x2013;" horiz-adv-x="1228" d="M123 535v153h983v-153h-983z" />
<glyph unicode="&#x2014;" horiz-adv-x="1556" d="M123 535v153h1311v-153h-1311z" />
<glyph unicode="&#x2018;" horiz-adv-x="251" d="M61 1260l78 419h195l-139 -419h-134z" />
<glyph unicode="&#x2019;" horiz-adv-x="251" d="M61 1260l78 419h195l-139 -419h-134z" />
<glyph unicode="&#x201a;" horiz-adv-x="665" d="M0 -201l164 420h194l-225 -420h-133z" />
<glyph unicode="&#x201c;" horiz-adv-x="538" d="M61 1260l78 419h195l-139 -419h-134zM328 1260l98 419h195l-160 -419h-133z" />
<glyph unicode="&#x201d;" horiz-adv-x="538" d="M61 1260l78 419h195l-139 -419h-134zM328 1260l98 419h195l-160 -419h-133z" />
<glyph unicode="&#x201e;" horiz-adv-x="665" d="M0 -201l164 420h194l-225 -420h-133z" />
<glyph unicode="&#x2022;" horiz-adv-x="942" d="M338 600q0 56 39 94.5t94 38.5t94 -38.5t39 -94.5t-39 -94.5t-94 -38.5t-94 38.5t-39 94.5z" />
<glyph unicode="&#x2026;" horiz-adv-x="1349" d="M117 88q0 44 32 75.5t76 31.5t75.5 -31.5t31.5 -75.5t-31.5 -76t-75.5 -32t-76 32t-32 76zM567 88q0 44 32.5 75.5t76.5 31.5t75 -31.5t31 -75.5t-31 -76t-75 -32t-76.5 32t-32.5 76zM1018 88q0 44 32 75.5t76 31.5t75.5 -31.5t31.5 -75.5t-31.5 -76t-75.5 -32t-76 32 t-32 76z" />
<glyph unicode="&#x202f;" horiz-adv-x="420" />
<glyph unicode="&#x2039;" horiz-adv-x="681" d="M123 512l389 391l109 -108l-281 -283l281 -283l-109 -108z" />
<glyph unicode="&#x203a;" horiz-adv-x="681" d="M61 229l281 283l-281 283l109 108l389 -391l-389 -391z" />
<glyph unicode="&#x205f;" horiz-adv-x="525" />
<glyph unicode="&#x20ac;" horiz-adv-x="1331" d="M72 545v153h104q-2 20 -2 66q0 44 2 67h-104v154h127q40 167 137 295t226 196t272 72q162 3 348 -45l37 -186q-126 54 -245 65.5t-213.5 -15t-174 -82t-134.5 -132t-87 -168.5h622v-154h-655q-4 -46 -4 -67q0 -20 4 -66h655v-153h-622q31 -92 85.5 -169t134 -133 t174.5 -82.5t214 -15t246 65.5l-37 -186q-186 -48 -348 -45q-143 4 -272 72.5t-226 197t-137 295.5h-127z" />
<glyph unicode="&#x25fc;" horiz-adv-x="1024" d="M0 0v1024h1024v-1024h-1024z" />
</font>
</defs>
</svg>
